<svg width="25" height="25" viewBox="0 0 25 25" fill="none" xmlns="http://www.w3.org/2000/svg">
<mask id="mask0_170_40204" style="mask-type:alpha" maskUnits="userSpaceOnUse" x="0" y="0" width="25" height="25">
<rect x="0.0390625" y="0.314453" width="24" height="24" fill="#D9D9D9"/>
</mask>
<g mask="url(#mask0_170_40204)">
<path d="M16.5391 16.3145V8.31445L12.5391 12.3145L16.5391 16.3145ZM5.03906 21.3145C4.48906 21.3145 4.01823 21.1186 3.62656 20.727C3.2349 20.3353 3.03906 19.8645 3.03906 19.3145V5.31445C3.03906 4.76445 3.2349 4.29362 3.62656 3.90195C4.01823 3.51029 4.48906 3.31445 5.03906 3.31445H19.0391C19.5891 3.31445 20.0599 3.51029 20.4516 3.90195C20.8432 4.29362 21.0391 4.76445 21.0391 5.31445V19.3145C21.0391 19.8645 20.8432 20.3353 20.4516 20.727C20.0599 21.1186 19.5891 21.3145 19.0391 21.3145H5.03906ZM8.03906 19.3145V5.31445H5.03906V19.3145H8.03906ZM10.0391 19.3145H19.0391V5.31445H10.0391V19.3145Z" fill="#667085"/>
</g>
</svg>
