<svg width="230" height="230" viewBox="0 0 230 230" fill="none" xmlns="http://www.w3.org/2000/svg">
<path fill-rule="evenodd" clip-rule="evenodd" d="M207 115C207 64.4242 165.682 23 114.994 23C64.3064 23 23 64.4242 23 115C23 165.576 64.3179 207 114.994 207C165.671 207 206.988 165.68 206.988 115H207Z" fill="#8098F9"/>
<path d="M175.79 77.0222H54.1989V156.655H175.79V77.0222Z" fill="#324A5E"/>
<path d="M173.312 77.0222H114.994V153.428H173.312V77.0222Z" fill="#E6E9EE"/>
<path fill-rule="evenodd" clip-rule="evenodd" d="M171.272 77.022C152.543 77.022 134.575 69.0575 114.994 77.022V148.575H171.272V77.022Z" fill="white"/>
<path d="M115.006 77.0222H56.5729V153.428H115.006V77.0222Z" fill="#E6E9EE"/>
<path fill-rule="evenodd" clip-rule="evenodd" d="M58.6128 77.0222C77.3413 77.0222 104.564 69.1615 114.994 77.0222V148.575H58.6128V77.0222Z" fill="white"/>
<path d="M115.859 77.0222H114.026V148.575H115.859V77.0222Z" fill="#ECF0F1"/>
<path fill-rule="evenodd" clip-rule="evenodd" d="M63.4535 108.649H106.927V110.044H63.4535V108.649ZM121.345 108.649H164.921V110.044H121.345V108.649ZM121.345 90.0348H164.921V91.441H121.345V90.0348ZM121.345 104.246H140.384V105.756H121.345V104.246ZM121.345 101.445H164.921V102.84H121.345V101.445ZM121.345 98.5409H164.921V100.051H121.345V98.5409ZM121.345 95.7401H140.384V97.1348H121.345V95.7401ZM121.345 92.8356H164.921V94.3455H121.345V92.8356ZM121.345 122.964H136.304V124.371H121.345V122.964ZM121.345 120.06H164.921V121.454H121.345V120.06ZM121.345 117.259H164.921V118.654H121.345V117.259ZM121.345 114.355H164.921V115.761H121.345V114.355ZM121.345 111.565H164.921V112.96H121.345V111.565ZM63.4535 90.0348H106.927V91.441H63.4535V90.0348ZM63.4535 104.246H82.4931V105.756H63.4535V104.246ZM63.4535 101.445H106.927V102.84H63.4535V101.445ZM63.4535 98.5409H106.927V100.051H63.4535V98.5409ZM63.4535 95.7401H106.927V97.1348H63.4535V95.7401ZM63.4535 92.8356H106.927V94.3455H63.4535V92.8356ZM63.4535 122.964H78.4132V124.371H63.4535V122.964ZM63.4535 120.06H106.927V121.454H63.4535V120.06ZM63.4535 117.259H106.927V118.654H63.4535V117.259ZM63.4535 114.355H106.927V115.761H63.4535V114.355ZM63.4535 111.565H106.927V112.96H63.4535V111.565Z" fill="#DFE1E3"/>
<path fill-rule="evenodd" clip-rule="evenodd" d="M107.354 146.2H102.305V158.695L107.354 154.488L112.31 158.695V146.2H107.354Z" fill="#F1543F"/>
</svg>
