<svg width="480" height="442" viewBox="0 0 480 442" fill="none" xmlns="http://www.w3.org/2000/svg">
<g clip-path="url(#clip0_36_17143)">
<rect width="480" height="442" rx="24" fill="#EEF4FF"/>
<path fill-rule="evenodd" clip-rule="evenodd" d="M369.6 186C369.6 114.754 311.396 56.3999 239.992 56.3999C168.588 56.3999 110.4 114.754 110.4 186C110.4 257.246 168.604 315.6 239.992 315.6C311.379 315.6 369.584 257.392 369.584 186H369.6Z" fill="#8098F9"/>
<path d="M325.634 132.501H154.35V244.679H325.634V132.501Z" fill="#324A5E"/>
<path d="M322.143 132.501H239.992V240.133H322.143V132.501Z" fill="#E6E9EE"/>
<path fill-rule="evenodd" clip-rule="evenodd" d="M319.27 132.5C292.887 132.5 267.576 121.281 239.992 132.5V233.297H319.27V132.5Z" fill="white"/>
<path d="M240.008 132.501H157.694V240.133H240.008V132.501Z" fill="#E6E9EE"/>
<path fill-rule="evenodd" clip-rule="evenodd" d="M160.568 132.501C186.95 132.501 225.299 121.427 239.992 132.501V233.297H160.568V132.501Z" fill="white"/>
<path d="M241.21 132.501H238.628V233.297H241.21V132.501Z" fill="#ECF0F1"/>
<path fill-rule="evenodd" clip-rule="evenodd" d="M167.387 177.054H228.627V179.018H167.387V177.054ZM248.938 177.054H310.324V179.018H248.938V177.054ZM248.938 150.832H310.324V152.812H248.938V150.832ZM248.938 170.851H275.759V172.978H248.938V170.851ZM248.938 166.906H310.324V168.87H248.938V166.906ZM248.938 162.814H310.324V164.941H248.938V162.814ZM248.938 158.869H275.759V160.833H248.938V158.869ZM248.938 154.777H310.324V156.904H248.938V154.777ZM248.938 197.219H270.011V199.2H248.938V197.219ZM248.938 193.128H310.324V195.092H248.938V193.128ZM248.938 189.182H310.324V191.147H248.938V189.182ZM248.938 185.091H310.324V187.071H248.938V185.091ZM248.938 181.161H310.324V183.126H248.938V181.161ZM167.387 150.832H228.627V152.812H167.387V150.832ZM167.387 170.851H194.208V172.978H167.387V170.851ZM167.387 166.906H228.627V168.87H167.387V166.906ZM167.387 162.814H228.627V164.941H167.387V162.814ZM167.387 158.869H228.627V160.833H167.387V158.869ZM167.387 154.777H228.627V156.904H167.387V154.777ZM167.387 197.219H188.46V199.2H167.387V197.219ZM167.387 193.128H228.627V195.092H167.387V193.128ZM167.387 189.182H228.627V191.147H167.387V189.182ZM167.387 185.091H228.627V187.071H167.387V185.091ZM167.387 181.161H228.627V183.126H167.387V181.161Z" fill="#DFE1E3"/>
<path fill-rule="evenodd" clip-rule="evenodd" d="M229.228 229.952H222.117V247.552L229.228 241.626L236.21 247.552V229.952H229.228Z" fill="#F1543F"/>
<path d="M178.875 391V359H199.687V363.859H184.672V372.547H198.609V377.406H184.672V386.141H199.813V391H178.875ZM205.602 391V359H217.852C220.164 359 222.086 359.365 223.617 360.094C225.159 360.812 226.31 361.797 227.07 363.047C227.841 364.297 228.227 365.714 228.227 367.297C228.227 368.599 227.977 369.714 227.477 370.641C226.977 371.557 226.305 372.302 225.461 372.875C224.617 373.448 223.674 373.859 222.633 374.109V374.422C223.768 374.484 224.857 374.833 225.898 375.469C226.951 376.094 227.81 376.979 228.477 378.125C229.143 379.271 229.477 380.656 229.477 382.281C229.477 383.937 229.076 385.427 228.273 386.75C227.471 388.062 226.263 389.099 224.648 389.859C223.034 390.62 221.003 391 218.555 391H205.602ZM211.398 386.156H217.633C219.737 386.156 221.253 385.755 222.18 384.953C223.117 384.141 223.586 383.099 223.586 381.828C223.586 380.88 223.352 380.026 222.883 379.266C222.414 378.495 221.747 377.891 220.883 377.453C220.018 377.005 218.987 376.781 217.789 376.781H211.398V386.156ZM211.398 372.609H217.133C218.133 372.609 219.034 372.427 219.836 372.062C220.638 371.687 221.268 371.161 221.727 370.484C222.195 369.797 222.43 368.984 222.43 368.047C222.43 366.807 221.992 365.786 221.117 364.984C220.253 364.182 218.966 363.781 217.258 363.781H211.398V372.609ZM234.52 391V359H246.52C248.978 359 251.04 359.427 252.707 360.281C254.384 361.135 255.65 362.333 256.504 363.875C257.368 365.406 257.801 367.193 257.801 369.234C257.801 371.286 257.363 373.068 256.488 374.578C255.624 376.078 254.348 377.24 252.66 378.062C250.973 378.875 248.9 379.281 246.441 379.281H237.895V374.469H245.66C247.098 374.469 248.275 374.271 249.191 373.875C250.108 373.469 250.785 372.88 251.223 372.109C251.671 371.328 251.895 370.37 251.895 369.234C251.895 368.099 251.671 367.13 251.223 366.328C250.775 365.516 250.092 364.901 249.176 364.484C248.259 364.057 247.077 363.844 245.629 363.844H240.316V391H234.52ZM251.051 376.5L258.973 391H252.504L244.723 376.5H251.051ZM269.871 391L260.84 359H267.074L272.84 382.516H273.137L279.293 359H284.965L291.137 382.531H291.418L297.184 359H303.418L294.387 391H288.668L282.262 368.547H282.012L275.59 391H269.871Z" fill="#3538CD"/>
</g>
<defs>
<clipPath id="clip0_36_17143">
<rect width="480" height="442" rx="24" fill="white"/>
</clipPath>
</defs>
</svg>
