<svg width="264" height="24" viewBox="0 0 264 24" fill="none" xmlns="http://www.w3.org/2000/svg">
<path fill-rule="evenodd" clip-rule="evenodd" d="M15.9455 23L10.396 15.0901L3.44886 23H0.509766L9.09209 13.2311L0.509766 1H8.05571L13.286 8.45502L19.8393 1H22.7784L14.5943 10.3165L23.4914 23H15.9455ZM19.2185 20.77H17.2398L4.71811 3.23H6.6971L11.7121 10.2532L12.5793 11.4719L19.2185 20.77Z" fill="#242E36"/>
<g clip-path="url(#clip0_7_4624)">
<path d="M70.2283 0H49.7717C49.3018 0 48.8512 0.186657 48.5189 0.518909C48.1867 0.851161 48 1.30179 48 1.77167V22.2283C48 22.6982 48.1867 23.1488 48.5189 23.4811C48.8512 23.8133 49.3018 24 49.7717 24H70.2283C70.6982 24 71.1488 23.8133 71.4811 23.4811C71.8133 23.1488 72 22.6982 72 22.2283V1.77167C72 1.30179 71.8133 0.851161 71.4811 0.518909C71.1488 0.186657 70.6982 0 70.2283 0ZM55.1533 20.445H51.545V8.98333H55.1533V20.445ZM53.3467 7.395C52.9374 7.3927 52.5379 7.2692 52.1987 7.04009C51.8596 6.81098 51.5958 6.48653 51.4409 6.10769C51.2859 5.72885 51.2466 5.31259 51.328 4.91145C51.4094 4.51032 51.6078 4.14228 51.8982 3.85378C52.1885 3.56529 52.5578 3.36927 52.9595 3.29046C53.3611 3.21165 53.7771 3.25359 54.155 3.41099C54.5328 3.56838 54.8555 3.83417 55.0825 4.17481C55.3094 4.51546 55.4303 4.91569 55.43 5.325C55.4339 5.59903 55.3825 5.87104 55.279 6.1248C55.1755 6.37857 55.022 6.6089 54.8276 6.80207C54.6332 6.99523 54.4018 7.14728 54.1474 7.24915C53.893 7.35102 53.6207 7.40062 53.3467 7.395ZM68.4533 20.455H64.8467V14.1933C64.8467 12.3467 64.0617 11.7767 63.0483 11.7767C61.9783 11.7767 60.9283 12.5833 60.9283 14.24V20.455H57.32V8.99167H60.79V10.58H60.8367C61.185 9.875 62.405 8.67 64.2667 8.67C66.28 8.67 68.455 9.865 68.455 13.365L68.4533 20.455Z" fill="#0A66C2"/>
</g>
<g clip-path="url(#clip1_7_4624)">
<path d="M120 12C120 5.37258 114.627 0 108 0C101.373 0 96 5.37258 96 12C96 17.9895 100.388 22.954 106.125 23.8542V15.4688H103.078V12H106.125V9.35625C106.125 6.34875 107.917 4.6875 110.658 4.6875C111.97 4.6875 113.344 4.92188 113.344 4.92188V7.875H111.831C110.34 7.875 109.875 8.80008 109.875 9.75V12H113.203L112.671 15.4688H109.875V23.8542C115.612 22.954 120 17.9895 120 12Z" fill="#1877F2"/>
<path d="M112.671 15.4688L113.203 12H109.875V9.75C109.875 8.80102 110.34 7.875 111.831 7.875H113.344V4.92188C113.344 4.92188 111.971 4.6875 110.658 4.6875C107.917 4.6875 106.125 6.34875 106.125 9.35625V12H103.078V15.4688H106.125V23.8542C107.367 24.0486 108.633 24.0486 109.875 23.8542V15.4688H112.671Z" fill="white"/>
</g>
<g clip-path="url(#clip2_7_4624)">
<path fill-rule="evenodd" clip-rule="evenodd" d="M156 0C149.372 0 144 5.3808 144 12.0204C144 17.3304 147.438 21.8364 152.207 23.4252C152.807 23.5356 153.025 23.1648 153.025 22.8456C153.025 22.5612 153.016 21.804 153.01 20.802C149.671 21.528 148.967 19.1904 148.967 19.1904C148.422 17.8008 147.635 17.4312 147.635 17.4312C146.545 16.6872 147.718 16.7016 147.718 16.7016C148.921 16.7856 149.555 17.94 149.555 17.94C150.625 19.776 152.364 19.2456 153.047 18.9384C153.157 18.162 153.467 17.6328 153.81 17.3328C151.146 17.0292 148.344 15.9972 148.344 11.3916C148.344 10.08 148.812 9.006 149.579 8.166C149.455 7.8624 149.044 6.6396 149.696 4.986C149.696 4.986 150.704 4.662 152.996 6.2172C153.975 5.95022 154.985 5.81423 156 5.8128C157.02 5.8176 158.046 5.9508 159.005 6.2172C161.296 4.662 162.301 4.9848 162.301 4.9848C162.956 6.6396 162.544 7.8624 162.421 8.166C163.189 9.006 163.655 10.08 163.655 11.3916C163.655 16.0092 160.848 17.0256 158.176 17.3232C158.606 17.694 158.989 18.4272 158.989 19.5492C158.989 21.1548 158.975 22.452 158.975 22.8456C158.975 23.1672 159.191 23.5416 159.8 23.424C162.19 22.6225 164.267 21.0904 165.739 19.0441C167.21 16.9977 168.001 14.5408 168 12.0204C168 5.3808 162.626 0 156 0Z" fill="#98A2B3"/>
</g>
<path d="M209.77 10.0969C210.319 8.56875 211.898 4.14844 211.898 2.73281C211.898 1.48594 211.163 0.440625 209.85 0.440625C207.759 0.440625 205.884 6.61406 205.298 8.08594C204.844 6.75 202.716 0 200.841 0C199.383 0 198.698 1.07344 198.698 2.42344C198.698 4.07812 200.302 8.36719 200.883 10.0172C200.588 9.90938 200.269 9.81562 199.945 9.81562C198.848 9.81562 197.681 11.1797 197.681 12.2812C197.681 12.6984 197.911 13.2844 198.056 13.6734C196.327 14.1422 195.661 15.2953 195.661 17.0344C195.656 20.4187 198.863 24 203.372 24C208.903 24 212.344 19.8469 212.344 14.4891C212.344 12.4688 212.02 10.6453 209.77 10.0969ZM208.111 5.0625C208.298 4.48594 209.1 2.04844 209.85 2.04844C210.253 2.04844 210.361 2.46563 210.361 2.79844C210.361 3.69375 208.552 8.63906 208.153 9.73594L206.559 9.45469L208.111 5.0625ZM200.17 2.26406C200.17 1.70625 200.85 0.121875 202.341 4.47188L203.963 9.17344C203.231 9.1125 202.664 9.03281 202.303 9.23906C201.792 7.88906 200.17 3.62812 200.17 2.26406ZM200.063 11.4375C201.436 11.4375 203.208 15.8719 203.208 16.4719C203.208 16.7109 202.978 17.0062 202.711 17.0062C201.731 17.0062 199.106 13.4016 199.106 12.4266C199.111 12.0656 199.702 11.4375 200.063 11.4375ZM208.702 20.1703C207.338 21.6703 205.594 22.4484 203.559 22.4484C200.775 22.4484 198.577 20.9203 197.517 18.3094C196.716 16.275 197.695 15.1078 198.483 15.1078C199.017 15.1078 201.028 17.9344 201.028 18.5344C201.028 18.7641 200.667 18.9234 200.48 18.9234C199.725 18.9234 199.43 18.1969 198.084 16.5141C196.692 17.9062 199.045 20.5875 200.817 20.5875C202.041 20.5875 202.838 19.4531 202.598 18.6188C202.772 18.6188 202.988 18.6328 203.147 18.5906C203.198 19.8609 203.573 21.375 205.102 21.4828C205.102 21.4406 205.195 21.15 205.195 21.1359C205.195 20.3203 204.698 19.6078 204.698 18.7781C204.698 17.4516 205.716 16.1672 206.747 15.4172C207.122 15.1359 207.577 14.9625 208.017 14.8031C208.472 14.6297 208.955 14.4281 209.302 14.0812C209.25 13.5562 209.034 13.0922 208.509 13.0922C207.211 13.0922 202.856 13.2797 202.856 11.2313C202.856 10.9172 202.861 10.6172 203.672 10.6172C205.186 10.6172 209.03 10.9922 210.155 11.9813C211.003 12.7359 211.294 17.2875 208.702 20.1703ZM204.08 14.2641C204.534 14.4094 205.003 14.4516 205.472 14.5453C205.125 14.7984 204.816 15.1078 204.52 15.4406C204.389 15.0422 204.23 14.6531 204.08 14.2641Z" fill="black"/>
<path d="M252 23.625C258.42 23.625 263.625 18.4203 263.625 12C263.625 5.57969 258.42 0.375 252 0.375C245.58 0.375 240.375 5.57969 240.375 12C240.375 18.4203 245.58 23.625 252 23.625Z" fill="#EA4C89"/>
<path fill-rule="evenodd" clip-rule="evenodd" d="M252 0C245.375 0 240 5.37527 240 12C240 18.6248 245.375 24 252 24C258.612 24 264 18.6248 264 12C264 5.37527 258.612 0 252 0ZM259.926 5.53145C261.358 7.27549 262.217 9.50107 262.243 11.9089C261.905 11.8439 258.521 11.154 255.111 11.5835C255.033 11.4143 254.967 11.2321 254.889 11.0499C254.681 10.5554 254.447 10.0477 254.213 9.56618C257.987 8.0304 259.705 5.81779 259.926 5.53145ZM252 1.77007C254.603 1.77007 256.985 2.74621 258.794 4.34707C258.612 4.60738 257.063 6.67679 253.419 8.04338C251.74 4.95878 249.879 2.43384 249.592 2.04338C250.36 1.86117 251.167 1.77007 252 1.77007ZM247.64 2.73319C247.913 3.09761 249.735 5.63558 251.44 8.65508C246.651 9.9306 242.421 9.90458 241.965 9.90458C242.629 6.72885 244.777 4.08676 247.64 2.73319ZM241.744 12.0131C241.744 11.9089 241.744 11.8048 241.744 11.7007C242.187 11.7136 247.158 11.7787 252.273 10.243C252.573 10.8156 252.846 11.4013 253.106 11.9869C252.976 12.026 252.833 12.0651 252.703 12.1041C247.419 13.8091 244.607 18.4685 244.373 18.859C242.746 17.0499 241.744 14.6421 241.744 12.0131ZM252 22.256C249.631 22.256 247.445 21.449 245.714 20.0954C245.896 19.718 247.978 15.7094 253.757 13.692C253.783 13.679 253.796 13.679 253.822 13.666C255.267 17.4013 255.853 20.5379 256.009 21.436C254.772 21.9696 253.419 22.256 252 22.256ZM257.714 20.4989C257.61 19.8742 257.063 16.8807 255.722 13.1974C258.937 12.6898 261.748 13.5228 262.1 13.6399C261.657 16.4902 260.017 18.9501 257.714 20.4989Z" fill="#C32361"/>
<defs>
<clipPath id="clip0_7_4624">
<rect width="24" height="24" fill="white" transform="translate(48)"/>
</clipPath>
<clipPath id="clip1_7_4624">
<rect width="24" height="24" fill="white" transform="translate(96)"/>
</clipPath>
<clipPath id="clip2_7_4624">
<rect width="24" height="24" fill="white" transform="translate(144)"/>
</clipPath>
</defs>
</svg>
