<svg width="403" height="403" viewBox="0 0 403 403" fill="none" xmlns="http://www.w3.org/2000/svg">
<path d="M244.605 97.3846C242.357 101.846 234.577 134.322 234.755 137.82C235.076 144.743 247.282 139.247 247.104 137.713C246.961 136.178 259.702 111.375 256.311 101.275C252.956 91.1747 244.57 97.3846 244.57 97.3846H244.605Z" fill="#CC9987"/>
<path d="M253.635 90.9604C252.35 90.6035 250.28 90.5321 248.71 91.6742C241.607 96.8847 238.752 118.262 239.038 121.688C241.286 122.866 252.992 127.256 252.992 127.256C255.562 109.804 254.348 111.053 257.025 106.521C258.774 103.487 253.67 90.9246 253.67 90.9246L253.635 90.9604Z" fill="#4686D3"/>
<path d="M252.385 129.611C248.888 130.967 244.534 131.431 241.75 133.323C238.967 135.214 231.829 137.927 233.328 141.174C234.862 144.422 239.68 146.064 244.534 144.137C249.388 142.245 253.849 139.033 255.383 138.498C256.918 137.962 252.35 129.611 252.35 129.611H252.385Z" fill="#CC9987"/>
<path d="M305.704 325.899C304.384 331.074 301.886 337.176 296.925 339.639C293.249 341.459 290.679 343.779 290.679 345.777C290.786 353.843 306.561 348.418 306.561 348.418C306.561 348.418 309.916 346.348 316.304 345.849C325.226 345.206 319.98 332.394 318.695 327.219C317.41 322.044 305.669 325.899 305.669 325.899H305.704Z" fill="black"/>
<path d="M276.904 322.187C275.583 327.362 272.157 330.966 267.196 333.429C263.52 335.249 257.096 337.819 257.096 339.781C257.203 347.847 272.835 343.6 272.835 343.6C272.835 343.6 277.974 341.209 287.682 340.567C292.642 340.245 290.073 328.754 288.788 323.579C287.503 318.404 276.904 322.187 276.904 322.187Z" fill="black"/>
<path d="M299.316 161.338C305.669 175.935 306.347 175.078 310.308 202.701C311.807 213.122 310.843 239.496 313.092 247.848C324.476 290.067 323.085 339.353 323.085 339.353L304.17 334.285C304.17 334.285 280.508 174.829 279.223 169.547C277.903 164.265 299.352 161.303 299.352 161.303L299.316 161.338Z" fill="#232121"/>
<path d="M262.664 259.339C271.193 302.273 267.624 332.144 267.624 332.144L292.571 332.001C290.108 283.965 288.609 283.072 287.717 267.227C286.682 248.99 279.259 234.5 279.259 234.5C279.259 234.5 282.721 244.421 284.041 249.668C285.326 254.95 297.139 337.64 297.139 337.64L313.092 337.034C316.482 325.934 307.846 272.508 303.313 252.023C300.672 240.067 295.819 180.36 284.826 159.59L250.315 164.836C250.315 164.836 257.489 233.072 262.735 259.339H262.664Z" fill="black"/>
<path d="M283.042 73.4014C282.935 72.7233 278.617 63.6584 278.617 63.6584L268.802 67.7983L265.983 78.8618L262.557 88.7118L275.619 113.694C285.79 117.049 291.393 85.6426 295.604 85.6426C295.14 85.6426 287.86 80.8247 282.971 73.4014H283.042Z" fill="#E0B8AA"/>
<path style="mix-blend-mode:multiply" d="M280.972 70.8675L268.41 110.125L261.45 90.8532L263.77 79.0045L280.972 70.8675Z" fill="url(#paint0_linear_7_10896)"/>
<path d="M252.385 89.8539C247.603 90.3892 250.744 110.589 251.386 117.727C251.386 117.727 251.243 127.791 250.922 143.208C250.315 173.258 251.636 181.11 251.386 182.751C250.637 187.712 310.237 185.642 308.345 180.503C299.173 155.771 300.101 119.226 302.528 108.84C304.955 98.4549 302.849 91.0672 301.636 89.2471C300.422 87.427 288.538 81.9667 288.538 81.9667C288.538 81.9667 282.685 91.8167 273.013 91.2814C267.517 90.9959 264.198 88.3906 265.84 81.7169L252.385 89.8539Z" fill="#2B55B2"/>
<path d="M289.966 79.7543C294.855 84.0369 301.1 86.321 306.989 87.9984C315.09 90.2824 299.245 126.256 312.735 180.253C312.735 180.253 307.56 183.073 297.853 183.358C291.108 109.875 303.135 92.6021 303.135 92.6021L287.325 83.6086L289.966 79.7186V79.7543Z" fill="#4686D3"/>
<path d="M278.795 57.4843C276.439 49.6685 272.978 43.4945 261.736 46.7421C258.238 47.7771 255.811 49.0619 254.241 50.5251C249.387 53.7014 249.423 58.0197 251.065 64.0868C250.851 64.0868 251.814 64.9433 251.636 65.0147C250.137 65.55 251.243 68.6193 253.099 71.3673C254.955 74.1153 255.811 75.5428 256.382 75.5785C260.308 81.8954 265.412 87.1773 270.729 85.7498C270.943 85.6784 272.407 85.1788 272.549 85.1074C278.545 83.0375 280.972 76.4351 280.901 68.8334C282.15 67.62 282.721 65.3002 282.185 62.8734C281.507 59.6971 280.901 57.1275 278.759 57.4487L278.795 57.4843Z" fill="#E0B8AA"/>
<path d="M251.101 64.1582C250.886 64.1582 251.886 64.9791 251.672 65.0862C250.208 65.6215 251.279 68.655 253.135 71.4387C254.991 74.1868 255.847 75.6144 256.418 75.6144C260.344 81.9312 265.447 87.2132 270.765 85.7856C270.836 85.7856 271.015 85.7142 271.229 85.6429C261.129 74.9363 256.133 55.0577 255.633 50.1683L254.348 50.5252C254.348 50.5252 254.277 50.5609 254.241 50.5966C249.387 53.7729 249.423 58.0912 251.065 64.1582H251.101Z" fill="#CC9987"/>
<path d="M256.275 47.6342V46.8134C256.275 46.8134 256.133 42.1025 255.562 42.2809C255.24 42.388 252.849 43.1731 251.422 45.8854L250.637 45.2073C250.637 45.2073 249.744 46.9204 248.924 48.2409C248.103 49.5614 247.496 50.5964 247.496 50.5964C247.496 50.5964 248.103 51.7027 247.746 49.954C246.354 50.989 246.711 55.2359 247.746 58.0553C247.889 58.9475 248.103 59.9468 248.424 60.9818C249.602 65.3358 250.851 66.1209 250.851 66.1209L251.886 66.3708L252.742 66.8346L251.35 63.48C251.35 63.48 249.53 59.8754 252.635 56.0567C254.919 53.273 261.593 51.8812 261.593 51.8812L256.275 47.5985V47.6342Z" fill="black"/>
<path d="M276.439 44.6364C274.833 42.2096 273.763 40.7821 269.373 41.2103C267.767 39.533 262.735 39.6757 262.521 40.0683C262.414 40.3181 265.983 41.139 266.268 42.3881C264.591 40.8178 259.452 38.9976 259.095 39.3188C259.095 39.3188 261.129 41.5316 261.736 43.0662L262.45 43.1733C261.343 40.7821 256.382 38.6765 256.668 39.5687C256.953 40.3181 259.809 41.4958 259.88 43.5658C259.702 43.5658 260.058 43.5658 259.88 43.5658C259.452 41.6743 255.776 39.2118 253.385 39.3903C254.812 41.6387 255.633 43.3159 252.421 48.7763C252.421 48.8477 251.386 55.5929 255.99 54.6293C257.417 54.3438 262.557 52.4165 266.054 51.3459C268.909 51.4886 273.62 52.3452 274.691 53.3444C276.154 54.7006 277.831 58.8048 277.831 58.8048L279.009 57.5201L280.686 57.8412C280.686 57.8412 280.008 50.0255 276.475 44.6008L276.439 44.6364Z" fill="#212121"/>
<path d="M314.983 96.278C317.803 101.274 325.404 137.356 325.404 141.353C325.404 149.311 311.165 143.708 311.272 141.924C311.379 140.175 298.638 113.48 301.921 101.774C305.169 90.0325 314.983 96.278 314.983 96.278Z" fill="#E0B8AA"/>
<path d="M306.026 89.9256C312.557 95.9927 321.265 115.372 323.335 122.295C315.412 127.363 305.847 130.075 305.847 130.075C305.847 130.075 299.316 112.909 298.567 104.487C297.318 90.0327 306.026 89.9256 306.026 89.9256Z" fill="#2B55B2"/>
<path d="M304.419 89.8184C305.883 89.3545 308.774 87.5701 310.522 88.9619C317.339 94.5651 324.369 118.298 324.262 122.259C321.728 123.758 318.302 125.222 318.302 125.222C314.377 105.414 311.736 98.5979 308.452 93.5301C306.275 90.1754 304.455 89.8184 304.455 89.8184H304.419Z" fill="#4686D3"/>
<path d="M298.852 149.74L268.909 153.915L264.234 108.948L294.141 103.166L298.852 149.74Z" fill="#FFC400"/>
<path d="M269.231 153.808L265.233 154.13L260.523 108.948L264.698 108.805L269.231 153.808Z" fill="#CC7425"/>
<path d="M265.376 154.13L238.396 148.99L232.186 105.307L260.523 108.948L265.376 154.13Z" fill="#FF9C00"/>
<path d="M231.115 134.072C231.115 134.072 235.041 128.826 236.04 128.041C237.004 127.256 239.181 126.506 241.786 126.256C243.749 126.078 243.428 127.72 241.607 128.433C240.109 129.04 238.324 129.718 238.324 129.718L237.253 131.503L237.039 131.895C237.039 131.895 242.107 130.039 242.642 129.825C243.213 129.611 246.318 129.326 247.104 129.147C248.21 128.862 249.388 129.897 247.817 130.682C246.211 131.503 242.785 132.502 241.679 132.894C240.572 133.323 240.394 133.572 240.394 133.572C243.499 132.466 247.318 131.181 248.46 131.395C249.602 131.61 249.566 132.68 247.71 133.358C245.854 134.072 240.787 135.75 240.787 135.75L247.211 134.572C247.211 134.572 249.459 135.428 246.675 136.463C241.072 138.533 238.467 141.103 237.539 141.353C235.433 141.924 230.758 139.925 231.151 134.108L231.115 134.072Z" fill="#E0B8AA"/>
<path d="M303.206 130.789C303.206 130.789 296.925 126.934 295.604 126.506C294.284 126.078 291.714 126.185 288.859 127.006C286.718 127.612 287.753 129.218 289.894 129.218C291.714 129.218 293.856 129.218 293.856 129.218L295.711 130.646L296.104 130.967C296.104 130.967 290.073 131.11 289.395 131.11C288.716 131.11 285.362 132.109 284.47 132.216C283.185 132.359 282.364 133.929 284.362 134.108C286.361 134.286 290.358 133.929 291.679 133.929C292.999 133.929 293.285 134.108 293.285 134.108C289.573 134.215 285.076 134.429 284.006 135.143C282.899 135.821 283.363 136.927 285.576 136.891C287.789 136.856 293.784 136.57 293.784 136.57L286.611 137.962C286.611 137.962 284.612 139.782 287.931 139.711C294.641 139.604 298.388 141.174 299.494 141.067C301.921 140.817 305.954 136.784 303.206 130.86V130.789Z" fill="#E0B8AA"/>
<path d="M302.921 130.789C306.918 132.359 311.878 132.895 315.09 135.036C318.302 137.213 326.475 140.318 324.726 144.029C322.978 147.741 317.446 149.597 311.878 147.456C306.347 145.279 301.208 141.603 299.459 140.996C297.71 140.389 302.921 130.789 302.921 130.789Z" fill="#E0B8AA"/>
<path d="M71.8008 319.831C71.9436 325.077 80.4732 329.824 88.3247 333.25C84.0063 336.141 76.0121 337.247 68.4461 333.928C64.4133 332.144 60.5946 334.464 59.6667 331.894C57.5254 326.041 60.7373 323.971 60.4875 315.085C60.2377 306.198 71.7294 316.905 71.8008 319.867V319.831Z" fill="#CC9987"/>
<path d="M59.1314 326.469C57.5611 329.681 56.9901 335.677 58.2035 337.39C59.4169 339.068 65.8052 339.317 67.5539 338.782C69.267 338.247 72.586 338.461 75.5125 339.353C78.4389 340.281 91.4296 340.816 93.7137 338.033C95.9621 335.249 87.2897 332.929 85.0056 331.751C82.7216 330.574 80.6873 333.357 77.8322 333.536C74.9771 333.714 59.1314 326.469 59.1314 326.469Z" fill="#6A7B9B"/>
<path d="M27.8324 320.01C28.5462 326.47 29.1529 331.181 36.2549 337.533C42.2506 342.922 28.9388 345.92 23.1572 342.351C19.9452 340.353 13.5213 335.642 12.9146 329.896C12.4506 325.257 18.8032 316.798 19.1244 314.05C20.2307 304.736 23.9424 305.092 25.3342 299.418C27.5112 290.781 27.083 313.551 27.8324 320.046V320.01Z" fill="#E0B8AA"/>
<path d="M13.1287 325.078C10.7733 327.826 9.66691 334.75 10.4164 336.748C11.1658 338.711 14.5563 339.71 16.3764 339.603C18.1965 339.496 20.1237 340.067 22.3721 342.244C26.8331 346.634 34.8631 348.633 38.432 348.097C50.1021 346.384 40.0736 339.889 38.1108 338.14C36.1836 336.391 28.9388 338.747 26.0837 338.176C23.2286 337.605 13.093 325.078 13.093 325.078H13.1287Z" fill="#8FA4BC"/>
<path d="M85.0413 185.107C83.2569 201.096 80.9371 261.017 79.5096 265.299C78.082 269.582 76.2976 278.54 76.2976 278.54C76.2976 278.54 72.4075 316.834 73.1213 321.116C67.4111 326.113 56.5261 325.471 56.5261 323.329C56.5261 321.188 52.0293 298.204 59.2027 271.973C63.5568 256.056 53.5639 230.503 57.8823 216.192C62.1649 201.881 85.077 185.071 85.077 185.071L85.0413 185.107Z" fill="#0D3B7F"/>
<path d="M81.8294 205.128C81.8294 205.128 69.3027 256.734 66.4476 262.48C63.5925 268.19 61.2727 267.155 56.9187 272.972C46.4262 287.034 34.0423 324.007 34.0423 326.862C28.3321 328.754 13.0573 319.725 14.0209 316.834C14.9845 313.979 23.7996 271.295 42.1436 254.129C42.1436 254.129 51.6368 215.906 46.9259 206.484C41.0372 194.707 48.6746 184.75 59.2385 175.471C69.8023 166.192 85.7908 181.181 85.7908 181.181L81.8651 205.128H81.8294Z" fill="#001C49"/>
<path d="M146.033 221.652C139.395 229.111 135.327 242.387 135.683 247.705C136.147 255.199 151.708 257.412 151.708 257.412L159.88 255.77C164.27 255.77 172.157 250.06 178.117 250.06C184.077 250.06 214.555 258.733 212.664 250.024C211.343 243.886 203.135 223.651 197.175 222.009C191.215 220.367 146.033 221.688 146.033 221.688V221.652Z" fill="#5A6075"/>
<path d="M205.169 158.876C214.948 158.555 213.199 177.113 219.659 189.14C222.942 195.278 224.762 200.739 224.12 202.273C219.837 212.23 220.159 210.446 204.955 209.839C202.35 209.732 196.283 204.95 196.283 204.95L201.922 168.654L205.169 158.876Z" fill="black"/>
<path d="M207.667 260.268C207.132 271.403 215.126 333.144 215.126 333.144H210.737L196.461 260.268H207.667Z" fill="#EAA74E"/>
<path d="M124.977 226.15C125.334 233.501 132.793 238.926 141.572 238.319L175.655 235.964C184.077 235.393 206.24 227.97 205.99 220.868L203.884 162.731C203.599 155.165 196.39 149.24 187.682 149.49L137.896 151.275C128.76 151.56 121.586 158.163 121.979 165.978L125.013 226.15H124.977Z" fill="#A84800"/>
<path d="M120.302 261.588C120.801 272.509 116.876 333.18 116.876 333.18H120.98L130.723 261.588H120.302Z" fill="#CC7425"/>
<path d="M143.785 261.374C144.356 273.865 143.178 343.743 143.178 343.743H147.853L155.705 261.374H143.785Z" fill="#CC7425"/>
<path d="M119.659 242.067C119.659 248.883 119.267 259.804 120.052 261.838C120.837 263.872 141.643 270.511 147.032 271.189C152.421 271.867 221.586 265.657 222.371 262.266C223.156 258.876 199.566 234.501 194.141 233.823C188.717 233.145 119.659 242.067 119.659 242.067Z" fill="#CC7425"/>
<path d="M202.278 323.151C201.707 327.327 201.779 337.212 204.348 340.46C204.348 340.46 206.668 341.923 209.166 341.352C211.736 340.746 212.164 341.745 213.663 343.529C215.162 345.278 224.477 346.884 228.831 346.063C233.97 345.1 235.433 342.53 228.795 338.354C220.944 333.465 216.304 328.897 214.484 324.15C212.664 319.404 202.278 323.115 202.278 323.115V323.151Z" fill="black"/>
<path d="M218.552 236.785C222.478 238.355 228.403 241.317 229.901 251.203C231.222 259.875 225.226 331.681 225.226 331.681L218.909 333.501C218.909 333.501 215.483 265.157 216.09 255.735C217.553 232.859 219.659 237.177 218.552 236.713V236.785Z" fill="#848FA0"/>
<path d="M200.53 229.433C213.877 234.144 223.228 236.713 224.798 243.459C226.404 250.239 219.587 333.537 219.587 333.537C219.587 333.537 200.887 334.607 200.887 333.43C200.887 332.252 198.638 258.448 198.317 256.378C197.996 254.308 200.53 229.433 200.53 229.433Z" fill="#5A6075"/>
<path d="M158.881 339.032C158.703 335.927 160.416 333.857 158.167 317.905C157.917 315.977 173.692 314.728 173.692 314.728C173.335 322.616 172.264 329.896 181.008 339.032C185.505 343.743 190.394 350.488 183.007 351.88C173.942 353.593 167.125 350.167 164.413 344.671C164.234 344.314 163.556 344.493 163.556 344.493C163.556 344.493 159.202 344.671 158.845 339.068L158.881 339.032Z" fill="black"/>
<path d="M171.8 235.071C163.806 231.645 157.703 232.288 153.956 241.46C150.209 250.596 150.887 268.262 151.708 284.072C152.279 294.921 155.241 333.822 155.241 333.822H164.805L180.544 332.537C180.544 332.537 181.65 269.475 181.65 263.729C181.65 257.984 181.187 239.104 171.836 235.107L171.8 235.071Z" fill="#5A6075"/>
<path d="M192.286 143.138C190.858 146.921 188.752 151.346 190.787 155.557C192.393 158.912 184.72 168.834 182.614 168.619C174.905 167.799 163.949 149.704 163.949 149.704C163.949 149.704 168.767 147.278 169.873 145.386C171.979 141.781 173.621 135.857 174.12 133.859C174.834 130.861 192.321 143.138 192.321 143.138H192.286Z" fill="#CC9987"/>
<path style="mix-blend-mode:multiply" d="M181.294 136.571H181.329H181.365L188.146 138.106C188.039 138.677 192.821 147.456 192.714 149.74C190.573 151.989 174.263 160.197 170.944 159.626C168.196 159.162 169.052 154.487 167.625 152.345C168.446 149.633 174.049 133.68 174.156 133.038L181.258 136.571H181.294Z" fill="url(#paint1_linear_7_10896)"/>
<path d="M201.279 229.433C201.279 229.433 149.566 247.313 151.172 242.816C156.133 228.755 147.104 205.022 147.675 200.311C148.424 194.029 148.531 179.29 147.853 176.542C147.175 173.758 140.002 168.726 140.002 168.726C140.002 168.726 140.787 156.271 149.317 154.272C158.025 152.274 156.312 150.918 165.055 146.457C165.055 146.457 170.837 163.23 184.755 162.659C189.716 162.445 187.039 193.28 189.038 195.921C190.894 199.454 201.279 229.468 201.279 229.468V229.433Z" fill="black"/>
<path d="M192.143 225.043L186.79 199.704C186.79 199.704 183.863 163.123 184.72 162.659C188.895 160.446 190.216 158.555 188.788 151.489L188.645 149.776C192.643 151.631 196.283 154.879 205.419 158.127C207.239 158.769 203.135 169.226 203.135 169.226C203.135 169.226 203.67 183.002 203.956 185.857C204.848 195.457 204.991 204.915 204.598 211.231C204.384 214.943 203.171 221.51 205.669 231.645L192.143 225.043Z" fill="#1E1E1E"/>
<path d="M169.873 123.759C169.409 126.685 168.767 137.106 168.624 137.642C168.481 138.213 168.017 140.211 167.482 139.926C166.947 139.64 173.014 143.173 174.12 142.353C175.191 141.532 178.296 128.47 177.903 127.649C177.511 126.828 169.909 123.759 169.909 123.759H169.873Z" fill="black"/>
<path d="M176.19 127.399C177.011 119.262 176.119 111.268 188.61 112.374C204.241 113.766 202.1 122.546 201.422 132.503C200.744 142.424 195.64 153.809 187.824 152.274C179.081 150.561 174.87 144.851 174.548 137.749C172.942 136.785 171.907 133.895 171.979 131.396C172.05 128.149 173.478 125.472 176.154 127.399H176.19Z" fill="#CC9987"/>
<path d="M184.577 125.686C182.721 135.786 182.757 150.169 188.288 151.953C194.998 153.309 198.139 146.671 200.815 140.069C202.778 134.823 204.848 126.079 203.135 120.047C201.993 116.193 200.494 114.159 197.71 113.409C192.071 114.159 186.111 117.406 184.577 125.686Z" fill="#E0B8AA"/>
<path d="M193.035 112.231L192.821 111.446C192.821 111.446 189.752 109.198 190.394 109.233C190.751 109.233 192.071 108.377 192.607 110.09L191.465 107.164L198.71 110.411C198.71 110.411 200.423 110.375 201.529 111.446C202.635 112.517 203.492 113.373 203.492 113.373C203.492 113.373 203.099 114.551 203.099 112.838C204.705 113.552 205.312 117.549 204.919 120.44C204.955 121.296 204.955 122.26 204.919 123.33C204.741 127.649 203.171 132.146 203.171 132.146L202.278 132.538C202.278 132.538 205.169 122.688 201.636 119.298C198.103 115.907 188.645 117.299 188.645 117.299L192.999 112.231H193.035Z" fill="#1E1E1E"/>
<path d="M170.23 116.336C171.836 113.98 175.548 109.519 177.582 108.912C178.795 107.021 185.326 107.877 192.25 106.414C192.25 106.414 186.111 107.77 185.826 109.341C185.826 109.341 185.826 109.341 185.862 109.341C186.861 108.198 196.996 106.271 196.425 106.985C193.142 110.911 194.106 108.091 194.534 110.054C194.748 110.054 194.177 110.161 194.391 110.161C194.391 108.27 196.675 106.771 198.174 106.593C197.246 108.984 200.208 109.198 201.743 112.196C203.849 114.801 205.098 119.298 202.35 120.832C196.033 124.33 191.929 120.19 188.181 119.904C184.791 119.619 182.614 121.332 181.757 122.51C180.58 124.08 178.938 132.003 178.938 132.003L176.761 130.147L174.762 126.578L169.445 129.861C169.445 129.861 167.018 121.153 170.194 116.407L170.23 116.336Z" fill="black"/>
<path d="M342.999 218.119C342.999 218.404 342.428 218.618 341.75 218.618H65.9836C65.3055 218.618 64.7345 218.404 64.7345 218.119L78.8315 213.301C80.1163 212.873 80.6159 212.766 81.294 212.766H323.62C324.334 212.766 325.297 212.908 327.01 213.337L342.963 218.083L342.999 218.119Z" fill="#EAA74E"/>
<path d="M319.623 272.259C319.623 273.436 318.338 274.4 316.732 274.4H86.8258C85.2198 274.4 83.935 273.436 83.935 272.259V231.181C83.935 230.003 85.2198 229.04 86.8258 229.04H316.732C318.338 229.04 319.623 230.003 319.623 231.181V272.259Z" fill="#A84800"/>
<path d="M320.586 228.683H309.059V349.417H320.586V228.683Z" fill="#A84800"/>
<path d="M95.3196 251.559H83.7922V349.418H95.3196V251.559Z" fill="#A84800"/>
<path style="mix-blend-mode:multiply" d="M71.3012 225.471L28.0466 273.758L295.604 272.33L340.001 226.577L71.3012 225.471Z" fill="url(#paint2_linear_7_10896)"/>
<path d="M343.391 228.968C343.391 229.789 342.856 230.467 342.178 230.467H65.2698C64.5917 230.467 64.0564 229.825 64.0564 228.968V219.332C64.0564 218.512 64.5917 217.869 65.2698 217.869H342.142C342.82 217.869 343.356 218.512 343.356 219.332V228.968H343.391Z" fill="#A84800"/>
<path d="M229.902 198.526C224.941 198.74 211.201 202.915 207.81 202.273C203.171 201.381 202.885 200.524 201.815 200.596C200.494 200.667 199.887 200.988 198.281 202.487C195.962 204.664 194.927 207.377 195.712 208.055C195.997 208.304 196.783 207.198 197.603 206.163C198.781 204.664 199.78 204.414 199.78 204.414C199.78 204.414 198.817 205.699 197.211 207.198C196.033 208.304 195.855 209.268 196.212 209.589C197.032 210.303 201.244 206.948 201.244 206.948C201.244 206.948 196.604 210.267 197.282 210.767C198.638 211.766 202.421 209.197 202.421 209.197C202.421 209.197 198.067 211.16 198.424 211.695C198.995 212.516 201.529 211.802 203.099 210.945C204.634 210.053 207.382 212.23 210.237 210.696C214.627 208.34 231.9 212.623 235.398 207.698C240.251 200.881 229.973 198.597 229.973 198.597L229.902 198.526Z" fill="#E0B8AA"/>
<path d="M160.666 212.087L165.234 208.983L227.082 209.197L235.79 211.267L160.666 212.087Z" fill="white"/>
<path d="M232.757 210.91H160.915V216.442H232.757V210.91Z" fill="#6CB1E0"/>
<path d="M270.908 199.418C270.908 200.917 269.694 202.202 268.16 202.238L196.675 201.203C194.713 201.274 193.107 199.918 193.107 198.205L195.89 141.745C195.89 139.997 197.496 138.712 199.459 138.819L271.015 140.782C272.55 140.889 273.763 142.174 273.763 143.673L270.908 199.383V199.418Z" fill="#94CDED"/>
<path d="M230.544 176.613L224.049 216.085H248.174L239.823 176.613H230.544Z" fill="#6CB1E0"/>
<path d="M278.51 349.346H276.011L282.899 272.187L287.289 261.802L346.282 262.516V277.648H346.139L355.668 349.774H353.17L337.467 277.648H290.715L278.51 349.346Z" fill="#A84800"/>
<path d="M358.416 173.437C363.056 159.733 366.268 159.59 379.187 159.875C390.037 160.125 393.427 165.835 392.999 175.114L374.976 259.268C374.548 268.547 366.982 274.686 358.202 272.865C349.423 271.081 337.146 265.157 337.86 255.878L358.488 173.437H358.416Z" fill="#EAA74E"/>
<path d="M299.316 362.801H296.568L304.491 287.034L283.328 279.075L316.625 263.444L369.123 270.582V287.034H368.98L378.045 360.481H375.297L359.558 287.034H313.877L299.316 362.801Z" fill="#CC7425"/>
<path d="M367.66 272.437C370.765 272.437 370.265 269.404 367.481 268.119L346.818 260.303C343.998 259.018 339.18 257.948 336.075 257.983L287.503 258.269C284.398 258.269 281.721 260.089 284.148 261.98L293.606 267.476C296.033 269.404 305.883 276.541 308.988 276.541L367.695 272.437H367.66Z" fill="#A84800"/>
<path d="M334.077 155.949C335.112 164.122 331.65 190.425 328.295 190.032C330.044 191.495 331.971 191.281 333.898 187.498C331.543 193.173 327.974 194.672 326.404 193.637C329.08 196.063 344.641 208.412 351.136 199.811C357.631 191.246 360.665 168.262 352.349 163.087C344.034 157.912 334.077 155.949 334.077 155.949Z" fill="#B5723A"/>
<path d="M355.24 184.036C343.784 183.572 342.749 192.209 336.361 200.989C328.474 211.802 326.832 215.335 326.832 215.335C326.832 215.335 316.803 210.268 314.662 209.768C312.485 209.268 311.771 222.33 311.771 222.33C311.771 222.33 316.911 223.258 326.939 223.258C333.613 223.258 358.095 199.597 357.453 193.565C356.81 187.534 355.276 183.965 355.276 183.965L355.24 184.036Z" fill="#001C49"/>
<path d="M348.424 165.264C352.813 169.868 354.205 178.683 351.386 185.5C350.101 188.605 345.212 194.743 342.071 196.456C338.252 198.526 353.099 194.529 360.022 192.566C366.125 190.817 367.767 183.573 371.621 183.359C369.623 180.004 366.946 165.371 364.483 152.88C362.699 143.816 348.388 165.3 348.388 165.3L348.424 165.264Z" fill="#E0B8AA"/>
<path d="M368.338 155.343C366.268 142.959 356.489 136.285 346.889 139.604C337.467 142.887 331.507 148.883 335.469 160.767C336.147 162.766 336.825 164.693 337.503 166.549C337.432 167.905 337.182 169.547 336.682 171.617C336.789 172.795 338.574 172.937 340.215 172.866C343.392 179.111 347.282 182.645 352.992 180.503C359.416 178.112 370.372 167.727 368.302 155.343H368.338Z" fill="#E0B8AA"/>
<path d="M361.807 187.712C355.74 192.031 342.642 192.709 342.642 192.709C337.039 197.741 332.364 200.989 329.901 203.737C326.475 207.627 328.117 212.837 328.616 215.799C329.116 218.726 325.262 222.937 323.941 227.934C323.584 229.254 316.732 236.356 316.732 236.356C316.732 236.356 343.142 252.523 347.317 252.951C349.923 253.201 362.307 225.899 368.445 214.193C374.548 202.452 372.085 197.241 374.548 192.852C372.192 188.462 366.446 184.465 361.843 187.748L361.807 187.712Z" fill="#001C49"/>
<path d="M296.818 200.846C295.533 201.667 292.821 202.666 293.927 203.094C295.033 203.523 295.462 202.809 296.746 202.951C298.031 203.094 301.279 202.166 301.279 202.166C301.279 202.166 294.784 202.987 295.176 203.986C295.569 204.986 301.1 204.272 301.1 204.272C301.1 204.272 297.317 205.021 297.781 205.271C298.21 205.521 299.709 205.878 301.172 205.985C302.599 206.092 308.417 208.876 308.131 207.341C307.846 205.807 306.811 202.844 303.42 201.667C299.994 200.453 296.853 200.774 296.853 200.774L296.818 200.846Z" fill="#CC9987"/>
<path d="M315.197 208.091C310.879 205.236 304.669 200.132 302.564 199.704C300.458 199.275 296.604 199.383 296.604 199.383C296.604 199.383 290.929 201.06 292.214 202.202C293.499 203.344 296.39 201.096 297.424 201.31C298.459 201.524 301.207 202.202 301.207 202.202L305.49 205.628C305.49 205.628 299.53 202.809 299.03 203.701C298.531 204.593 299.03 204.879 301.065 206.092C303.099 207.27 304.812 210.125 306.489 211.338C311.557 214.907 317.41 214.729 317.41 214.729L318.731 209.732L315.162 208.126L315.197 208.091Z" fill="#E0B8AA"/>
<path d="M323.691 227.719L329.509 221.902L279.83 205.307L295.14 219.118L323.691 227.719Z" fill="#A80000"/>
<path d="M296.104 217.941L280.223 203.951L326.903 220.796L314.27 222.473L296.104 217.941Z" fill="#D7EBF2"/>
<path d="M296.639 217.619L281.829 200.311L328.759 218.94L315.911 221.866L296.639 217.619Z" fill="white"/>
<path d="M296.818 218.762L306.24 205.378L340.394 216.977L322.799 224.936L296.818 218.762Z" fill="#D7EBF2"/>
<path d="M297.175 219.261L307.275 207.734L342.892 219.19L327.367 228.076L297.175 219.261Z" fill="white"/>
<path d="M336.111 232.894L344.962 220.974L308.381 209.233L295.212 219.261L336.111 232.894Z" fill="#B80000"/>
<path d="M237.896 318.868C228.51 330.075 216.911 326.149 217.946 328.397C223.192 339.925 223.156 332.287 228.51 332.68C233.613 333.072 234.149 333.715 237.111 332.537C243.82 329.86 241.358 325.435 249.245 318.833C257.132 312.195 247.675 307.162 237.896 318.833V318.868Z" fill="#CC9987"/>
<path d="M220.694 326.077C222.229 323.9 224.691 321.259 225.869 321.116C228.26 320.831 229.366 322.08 228.617 324.186C227.867 326.256 222.978 330.395 222.978 330.395L220.694 326.113V326.077Z" fill="#2B55B2"/>
<path d="M245.855 330.574C245.855 334.642 246.497 338.604 243.392 341.994C238.967 343.457 207.846 333.75 207.846 333.75C207.846 333.75 204.706 332.608 206.383 329.36C207.561 327.112 214.591 328.325 221.336 325.542C224.227 330.288 227.225 325.328 229.759 327.933C236.04 334.392 245.855 330.574 245.855 330.574Z" fill="#2B55B2"/>
<path d="M234.648 338.14C241.358 339.46 244.284 340.995 244.284 340.995C244.07 341.923 243.642 344.278 242.678 344.207C241.715 344.136 216.055 339.603 207.739 335.463C205.705 334.428 205.526 330.752 205.883 330.574C205.776 331.716 206.526 332.43 207.846 333.001C221.336 338.782 227.511 336.712 234.648 338.104V338.14Z" fill="#232121"/>
<path d="M220.837 329.004C220.837 329.004 220.944 328.718 220.837 328.576L220.016 327.184L224.406 328.825C224.406 328.825 224.763 328.825 224.87 328.647C224.87 328.647 224.941 328.29 224.798 328.183L221.586 325.256C221.586 325.256 221.194 325.114 221.051 325.256C221.051 325.256 220.908 325.649 221.051 325.792L222.835 327.398L219.266 326.077C219.266 326.077 218.945 326.077 218.838 326.184C218.838 326.184 218.731 326.47 218.838 326.613L219.73 328.076L215.198 326.684C214.984 326.613 214.77 326.72 214.698 326.934C214.663 327.148 214.77 327.362 214.984 327.433L220.48 329.111C220.48 329.111 220.765 329.111 220.872 328.968L220.837 329.004Z" fill="white"/>
<path d="M313.413 244.136C309.38 243.672 279.58 252.487 262.271 256.413C261.486 256.592 253.206 259.732 251.636 265.407C244.998 284.179 233.685 320.902 232.007 321.366C233.47 322.116 240.144 329.254 243.213 323.972C252.778 307.626 263.128 261.445 263.52 264.407C264.02 268.333 311.522 254.022 311.522 254.022L313.377 244.172L313.413 244.136Z" fill="black"/>
<path d="M242.321 325.97C237.432 331.538 229.545 333.786 223.656 335.285C226.69 346.563 230.687 347.669 236.682 342.601C239.359 340.317 245.997 344.778 249.209 342.601C253.635 339.603 250.708 338.89 254.884 329.896C261.629 315.335 272.3 298.24 272.942 284.964C273.085 282.109 245.069 322.83 242.321 325.97Z" fill="#E0B8AA"/>
<path d="M226.083 333.536C227.617 331.359 230.08 328.718 231.258 328.54C233.649 328.254 234.755 329.503 234.006 331.609C233.256 333.679 228.403 337.819 228.403 337.819L226.119 333.536H226.083Z" fill="#4686D3"/>
<path d="M253.278 336.605C253.278 340.674 253.135 345.492 250.03 348.882C245.605 350.345 213.271 341.245 213.271 341.245C213.271 341.245 210.13 340.067 211.808 336.819C212.95 334.571 220.016 335.749 226.761 332.965C229.652 337.747 232.65 332.751 235.184 335.356C241.501 341.816 253.242 336.605 253.242 336.605H253.278Z" fill="#4686D3"/>
<path d="M240.109 345.563C246.818 346.884 251.493 348.24 251.493 348.24C251.279 349.168 250.851 351.523 249.887 351.452C248.924 351.38 226.012 351.309 213.378 344.136C211.379 342.994 210.987 338.211 211.344 338.069C211.236 339.211 211.986 339.924 213.306 340.496C226.832 346.241 233.007 344.171 240.109 345.563Z" fill="#232121"/>
<path d="M226.297 336.463C226.297 336.463 226.404 336.177 226.297 336.034L225.476 334.642L229.866 336.248C229.866 336.248 230.223 336.248 230.33 336.07C230.33 336.07 230.401 335.713 230.259 335.606L227.047 332.68C227.047 332.68 226.654 332.537 226.511 332.68C226.511 332.68 226.404 333.072 226.511 333.215L228.296 334.821L224.727 333.536C224.727 333.536 224.406 333.536 224.299 333.643C224.299 333.643 224.191 333.929 224.299 334.071L225.191 335.535L220.623 334.178C220.444 334.107 220.23 334.214 220.159 334.428C220.087 334.642 220.23 334.857 220.444 334.892L225.94 336.57C225.94 336.57 226.261 336.57 226.333 336.427L226.297 336.463Z" fill="white"/>
<path d="M319.409 232.287C315.84 236.499 312.628 243.601 312.628 243.601C312.628 243.601 282.971 254.129 270.123 258.483C269.337 258.733 263.377 259.946 261.236 263.979C254.205 277.362 237.503 327.076 236.968 327.362C243.499 330.931 252.885 333.358 253.92 332.822C259.131 329.432 277.51 284.072 278.438 283.965C298.566 281.645 314.055 272.08 328.081 273.472C350.065 275.649 350.493 252.38 350.101 247.883C349.708 243.387 319.409 232.323 319.409 232.323V232.287Z" fill="#1E1E1E"/>
<path d="M324.869 224.08C323.87 224.115 316.982 222.509 315.162 222.081C315.055 222.081 314.948 222.01 314.841 222.01C313.056 220.618 311.129 219.083 310.451 218.619C309.63 218.084 303.634 216.621 302.921 217.192C302.171 217.763 302.814 219.012 304.098 219.19C305.419 219.369 306.846 219.154 307.346 220.296C307.382 220.403 307.417 220.511 307.453 220.582L302.028 220.475C302.028 220.475 297.996 219.511 296.568 218.441C295.462 217.584 296.425 220.154 297.318 221.153C298.138 222.081 298.888 222.331 299.602 223.58C299.602 223.58 299.388 225.222 300.815 226.399C301.065 226.578 300.815 227.684 302.849 228.826C303.42 229.147 302.992 229.504 304.598 230.396C305.919 231.146 309.273 231.039 313.592 230.61C315.876 230.361 327.546 235.571 327.546 235.571L324.833 224.115L324.869 224.08Z" fill="#CC9987"/>
<path d="M318.017 222.331L351.993 220.011L358.238 204.736C358.238 204.736 365.197 181.681 374.084 190.853C380.222 197.17 370.586 228.077 359.202 235.286C351.564 240.104 316.661 236.392 316.661 236.392L317.981 222.366L318.017 222.331Z" fill="#0D3B7F"/>
<path d="M367.41 145.386C361.985 137.713 353.384 136.178 343.213 140.782C336.218 143.994 333.22 151.203 333.934 153.808C334.22 154.879 334.683 154.701 334.683 154.701C342.249 161.945 352.671 158.341 353.491 158.198C354.312 158.019 356.953 155.771 357.774 160.482C357.952 161.553 358.095 162.659 358.167 163.73C360.522 185.25 357.025 201.56 345.569 199.097C346.175 201.702 351.172 206.984 358.345 198.74C359.273 197.67 360.165 196.528 360.986 195.35C359.915 199.847 358.131 202.987 355.169 203.344C359.558 205.949 378.117 200.953 379.223 195.814C379.223 195.814 377.296 159.376 367.374 145.421L367.41 145.386Z" fill="#B5723A"/>
<path d="M357.917 151.953C364.02 158.591 368.302 189.604 358.06 202.059C362.663 200.989 369.373 186.892 365.697 170.261C361.985 153.63 357.917 151.953 357.917 151.953Z" fill="#CC8E5A"/>
<path d="M348.923 143.352C353.063 146.706 358.88 146.92 360.308 166.978C361.735 187.035 357.845 196.67 352.849 199.347C356.846 198.276 358.666 196.171 359.523 193.887C357.845 197.812 357.453 198.598 357.56 198.669C358.416 199.597 363.52 190.389 363.234 178.862C363.02 171.189 361.807 157.52 357.417 150.24C353.456 143.673 348.923 143.316 348.923 143.316V143.352Z" fill="#CC8E5A"/>
<path d="M111.201 146.064C111.594 156.378 107.275 169.797 105.812 175.792C105.634 176.506 114.163 189.961 115.555 191.674C117.661 194.279 118.696 195.6 119.481 197.527C120.302 199.561 120.801 200.382 120.552 201.559C120.266 202.773 118.553 205.485 117.911 206.377C117.304 207.305 115.377 209.375 114.306 209.375C113.271 209.375 114.52 207.876 115.805 205.842C117.09 203.808 116.376 202.951 116.34 202.309C116.269 201.667 115.412 199.954 115.412 199.954L114.449 200.31C114.449 200.31 112.629 202.951 111.629 204.629C110.63 206.306 108.774 205.878 109.916 203.808C111.451 201.06 110.345 200.989 110.594 198.633C111.023 194.529 109.702 193.244 106.24 190.782C104.813 189.747 89.7879 180.182 90.2876 177.363C91.5724 169.832 96.2476 148.455 99.2097 146.349C102.172 144.279 110.987 140.211 111.237 146.028L111.201 146.064Z" fill="#CC9987"/>
<path d="M127.261 134.072C120.659 134.358 111.629 135.857 106.99 153.951C106.026 157.663 108.31 135.286 105.669 129.504C103.35 124.401 101.387 129.504 99.3168 126.792C102.672 126.221 113.128 121.367 116.769 114.122C120.373 106.913 127.261 134.072 127.261 134.072Z" fill="#E0B8AA"/>
<path d="M107.882 135.607L105.205 124.651C105.205 124.651 103.1 122.367 93.4638 127.327C84.4703 132.002 77.3683 138.712 68.0892 153.273C56.9187 170.832 52.1364 172.866 45.6767 180.682C43.1072 183.822 71.7651 202.737 79.7594 205.914C82.436 206.984 84.506 188.676 92.2147 175.721C99.9235 162.766 100.459 167.941 105.312 160.304C109.488 153.701 111.094 143.78 111.094 143.78L107.882 135.607Z" fill="#327C34"/>
<path d="M114.235 143.958C113.806 149.347 108.061 164.265 105.919 165.621C103.778 166.977 99.8164 168.119 95.7836 176.292C93.8207 180.253 84.3276 208.697 84.3276 208.697L63.2356 196.848C70.0521 175.649 85.6123 158.233 89.5024 154.272C94.2133 149.454 108.81 125.864 109.417 136.178C109.738 141.888 114.235 143.994 114.235 143.994V143.958Z" fill="#3C9E3C"/>
<path d="M114.163 108.091C116.59 96.0637 125.405 92.1736 134.934 94.1008C144.499 95.9923 148.246 104.593 145.855 116.62C145.391 118.904 144.784 121.081 143.999 123.116C144.035 124.258 144.177 125.578 144.463 127.22C144.32 128.219 142.928 128.362 141.501 128.29C138.146 133.715 133.649 138.676 126.476 136.463C117.161 133.572 111.736 120.118 114.128 108.126L114.163 108.091Z" fill="#E0B8AA"/>
<path d="M135.541 108.234L147.318 108.055C148.746 105.807 144.891 94.3507 130.187 93.0659C116.733 91.8882 111.201 100.168 109.345 107.877C107.489 115.55 110.237 122.759 110.237 122.759C110.237 122.759 125.12 122.402 123.549 119.583C122.586 117.834 122.336 112.017 125.048 112.159C126.369 112.231 127.297 113.908 127.297 113.908L135.505 108.234H135.541Z" fill="#84372D"/>
<path d="M146.319 104.45C148.781 106.52 151.743 112.088 146.925 114.265C143.249 115.942 128.796 111.446 130.866 120.689C129.866 120.582 126.404 114.943 129.509 109.376C132.579 103.772 146.319 104.45 146.319 104.45Z" fill="#84372D"/>
<path d="M119.588 209.018C117.589 206.627 115.02 208.055 112.415 208.09C110.916 204.45 106.312 183.073 105.884 181.467C105.491 179.861 104.849 154.95 100.958 142.495C100.958 142.495 95.5338 136.285 89.324 143.101C85.2912 147.491 91.8222 176.649 95.4267 181.859C97.0327 188.676 101.815 200.203 104.777 205.093C107.311 209.268 107.989 211.302 108.489 212.659C109.024 214.086 110.023 213.979 112.058 213.979C113.378 213.979 114.556 213.337 115.734 212.623C116.198 212.944 116.947 213.23 116.947 213.23C116.947 213.23 120.088 215.692 120.873 215.192C121.301 214.907 120.23 213.801 119.16 212.873C120.409 213.872 122.015 215.192 122.336 214.978C123.085 214.479 120.694 212.373 120.337 211.838C122.586 214.657 123.335 213.801 123.335 213.801C123.335 213.801 121.622 211.41 119.624 209.018H119.588Z" fill="#E0B8AA"/>
<path d="M112.878 109.519C92.1077 99.3116 96.9257 123.758 95.8193 133.466C94.713 143.173 93.678 162.766 87.6466 161.981C91.8936 164.301 102.386 163.551 108.489 148.241C114.592 132.93 101.458 116.906 110.916 113.266C114.413 111.91 112.878 109.554 112.878 109.554V109.519Z" fill="#84372D"/>
<path d="M145.783 157.198C137.468 152.059 124.691 202.594 126.726 206.734C128.724 210.838 129.902 212.516 132.9 213.23C141.786 215.3 154.563 213.23 154.563 213.23C154.563 213.23 154.384 203.915 155.598 201.488C156.811 199.061 145.676 195.992 145.676 195.992C145.676 195.992 151.279 180.753 151.279 179.504C151.279 178.255 150.137 159.875 145.783 157.198Z" fill="#1E1E1E"/>
<path d="M148.567 200.061C154.242 199.847 170.194 203.273 174.013 202.202C179.224 200.774 179.438 199.775 180.687 199.739C182.186 199.668 182.9 199.989 184.898 201.524C187.753 203.772 189.181 206.734 188.36 207.627C188.074 207.948 187.039 206.77 186.04 205.664C184.577 204.058 183.435 203.879 183.435 203.879C183.435 203.879 184.648 205.236 186.611 206.77C188.074 207.912 188.36 208.983 187.967 209.411C187.111 210.303 181.972 206.877 181.972 206.877C181.972 206.877 187.539 210.196 186.825 210.839C185.398 212.088 180.865 209.518 180.865 209.518C180.865 209.518 185.969 211.338 185.612 211.981C185.041 212.98 182.079 212.373 180.259 211.552C178.439 210.696 175.548 213.408 172.157 211.945C166.911 209.661 146.533 216.977 143.321 210.91C139.752 204.094 148.639 200.061 148.639 200.061H148.567Z" fill="#E0B8AA"/>
<defs>
<linearGradient id="paint0_linear_7_10896" x1="260.737" y1="107.056" x2="277.974" y2="66.9417" gradientUnits="userSpaceOnUse">
<stop stop-color="white"/>
<stop offset="0.64" stop-color="#C6C0B9"/>
</linearGradient>
<linearGradient id="paint1_linear_7_10896" x1="165.424" y1="152.006" x2="213.739" y2="124.183" gradientUnits="userSpaceOnUse">
<stop stop-color="white"/>
<stop offset="0.52" stop-color="#C6C0B9"/>
</linearGradient>
<linearGradient id="paint2_linear_7_10896" x1="184.042" y1="331.395" x2="184.042" y2="233.287" gradientUnits="userSpaceOnUse">
<stop offset="0.7" stop-color="white"/>
<stop offset="0.75" stop-color="#F7F7F7"/>
<stop offset="0.84" stop-color="#E3E3E3"/>
<stop offset="0.94" stop-color="#C3C3C3"/>
<stop offset="0.96" stop-color="#BDBDBD"/>
</linearGradient>
</defs>
</svg>
