<svg width="473" height="473" viewBox="0 0 473 473" fill="none" xmlns="http://www.w3.org/2000/svg">
<path d="M430.959 274.441C430.959 277.652 428.133 280.307 424.665 280.307H47.3926C43.9248 280.307 41.0991 277.695 41.0991 274.441V44.2763C41.0991 41.0653 43.9248 38.4108 47.3926 38.4108H424.665C428.133 38.4108 430.959 41.0225 430.959 44.2763V274.441Z" fill="#84372D"/>
<path d="M420.941 262.882C420.941 265.836 418.286 268.234 414.947 268.234H57.0261C53.7294 268.234 51.0749 265.836 51.0749 262.882V52.3252C51.0749 49.3711 53.7294 46.9735 57.0261 46.9735H414.947C418.243 46.9735 420.941 49.3711 420.941 52.3252V262.882Z" fill="#327C34"/>
<g style="mix-blend-mode:soft-light">
<path d="M69.2276 95.4815C68.3713 91.6283 67.3867 88.2032 65.931 84.5641L67.7292 83.8362C69.2277 87.561 70.2551 91.1145 71.1114 95.0533C72.0105 99.2062 72.3959 103.959 74.1084 107.469L72.353 108.326C70.4692 104.344 70.1267 99.4631 69.2276 95.4815Z" fill="#EFEFEF"/>
<path d="M65.2458 95.0098L65.3743 93.0832C66.7871 93.1689 68.2 93.2545 69.57 93.2545C72.6098 93.2545 75.5211 92.912 78.2612 91.7132L79.0318 93.5114C75.992 94.8386 72.781 95.1811 69.57 95.1811C68.1144 95.1811 66.6587 95.0955 65.2458 95.0098Z" fill="#EFEFEF"/>
<path d="M74.8789 86.5332L76.6771 85.7626C79.0747 91.3712 80.0165 97.2794 82.1999 102.717L80.4019 103.445C78.0899 97.7504 77.1908 91.8421 74.8789 86.5332Z" fill="#EFEFEF"/>
<path d="M84.5119 91.5429C87.8085 90.2585 91.4477 90.601 94.1878 89.4879L94.9155 91.2861C91.5333 92.5705 87.8942 92.2279 85.2398 93.3411L84.5119 91.5429Z" fill="#EFEFEF"/>
<path d="M86.3102 86.1907L88.194 85.7626C89.2216 90.1296 89.7352 94.4965 91.4478 98.4354L89.6924 99.206C87.8086 94.9247 87.295 90.4293 86.3102 86.1907Z" fill="#EFEFEF"/>
<path d="M99.9249 80.6249C99.2399 79.5546 98.769 78.3986 98.6406 77.0714L100.482 76.6005C100.995 77.6708 101.381 78.784 101.723 79.8971C103.478 82.1234 106.946 84.3069 109.558 86.8329C108.488 81.6097 107.203 76.1723 105.79 71.2916L107.674 70.735C109.472 76.9858 111.099 83.9644 112.255 90.3864L110.414 90.943C109.43 88.3742 105.619 86.1907 102.622 83.4935C103.222 86.7473 103.521 89.9155 104.806 92.7411L103.007 93.5118C101.167 89.2304 101.124 84.6066 100.01 80.5393L99.9249 80.6249Z" fill="#EFEFEF"/>
<path d="M114.696 74.6312C115.98 74.1174 117.093 73.7321 118.035 73.0471L119.148 74.6312C117.907 75.4875 116.622 75.9156 115.423 76.4294L114.696 74.6312Z" fill="#EFEFEF"/>
<path d="M112.555 70.0074C113.54 69.6221 114.524 69.1939 115.509 68.8086L116.237 70.6068C115.252 70.9921 114.267 71.3774 113.326 71.8056L112.598 70.0074H112.555Z" fill="#EFEFEF"/>
<path d="M126.17 82.7656C122.316 80.0256 118.377 72.9185 118.335 66.9247C118.335 65.1265 118.72 63.4139 119.662 62.0011C121.16 59.7748 124.2 57.9766 127.326 57.9338C128.696 57.9338 130.108 58.3192 131.264 59.3039L132.763 60.5026C136.402 62.8574 139.142 66.4965 139.099 71.5913C139.099 71.5913 139.099 71.891 139.099 72.0623C138.885 75.4445 137.943 82.1662 134.433 84.2641C133.619 84.6922 132.763 84.8635 131.907 84.8635C129.766 84.8635 127.754 83.7932 126.212 82.7228L126.17 82.7656ZM121.246 63.0714C120.561 64.0561 120.261 65.3834 120.261 66.9247C120.176 72.0195 124.115 79.0837 127.24 81.1815C128.61 82.1234 130.365 82.9797 131.821 82.9369C132.42 82.9369 132.934 82.8085 133.448 82.5516C135.417 81.7381 137.087 74.9736 137.044 72.0195V71.5913C137.044 67.1815 134.861 64.313 131.564 62.1295L132.078 61.3161L131.478 62.0867L129.937 60.8451C129.167 60.2029 128.225 59.9032 127.197 59.9032H127.111C124.842 59.9032 122.145 61.5302 121.16 63.0714H121.246Z" fill="#EFEFEF"/>
<path d="M140.94 76.8144C139.656 75.4872 136.616 72.4474 135.417 72.5759C135.417 72.5759 135.289 72.5759 135.246 72.5759C134.304 72.5759 134.133 74.4169 133.448 76.2578L131.692 75.4015C132.249 74.5881 131.992 71.4627 134.861 70.6921C134.861 70.6921 135.246 70.6065 135.46 70.6065C138.114 70.7349 140.426 73.5178 141.882 74.9306C141.882 74.9306 142.139 74.7593 142.182 74.6737L143.595 76.001C143.124 76.5147 142.524 76.8144 141.925 77.0285L141.411 77.1569L141.026 76.7716L140.94 76.8144Z" fill="#EFEFEF"/>
</g>
<g opacity="0.4">
<path d="M243.393 203.371C244.378 203.371 245.234 203.713 245.919 204.484C246.647 205.255 246.99 206.154 246.99 207.267C246.99 208.38 246.647 209.365 245.919 210.093C245.191 210.863 244.335 211.206 243.308 211.206C242.28 211.206 241.381 210.821 240.696 210.093C240.011 209.365 239.626 208.423 239.626 207.267C239.626 206.111 240.054 205.084 240.824 204.356C241.509 203.713 242.366 203.371 243.35 203.371H243.393ZM243.308 203.799C242.623 203.799 242.109 204.056 241.681 204.527C241.167 205.169 240.91 206.068 240.91 207.267C240.91 208.466 241.167 209.45 241.723 210.093C242.109 210.606 242.665 210.863 243.308 210.863C243.993 210.863 244.592 210.606 245.063 210.05C245.534 209.493 245.748 208.637 245.748 207.438C245.748 206.154 245.491 205.212 244.977 204.57C244.592 204.056 243.993 203.842 243.308 203.842V203.799Z" fill="white"/>
<path d="M219.118 145.573C220.103 145.573 220.916 145.958 221.644 146.686C222.372 147.414 222.714 148.313 222.714 149.426C222.714 150.539 222.372 151.524 221.644 152.252C220.916 153.022 220.06 153.408 219.032 153.408C218.005 153.408 217.148 153.022 216.421 152.294C215.736 151.567 215.35 150.625 215.35 149.469C215.35 148.313 215.736 147.328 216.549 146.557C217.277 145.915 218.09 145.573 219.075 145.573H219.118ZM218.989 146.001C218.304 146.001 217.791 146.258 217.362 146.729C216.849 147.371 216.592 148.27 216.592 149.469C216.592 150.668 216.849 151.652 217.362 152.294C217.791 152.808 218.304 153.065 218.947 153.065C219.674 153.065 220.231 152.765 220.702 152.209C221.173 151.652 221.387 150.796 221.387 149.597C221.387 148.313 221.13 147.371 220.616 146.729C220.231 146.215 219.674 145.958 218.947 145.958L218.989 146.001Z" fill="white"/>
<path d="M198.311 161.028V163.212C198.311 163.683 198.353 163.982 198.482 164.068C198.61 164.239 198.824 164.325 199.124 164.325H199.424V164.539H196.213V164.325H196.512C196.855 164.325 197.069 164.239 197.197 164.025C197.283 163.897 197.283 163.64 197.283 163.212V158.374C197.283 157.903 197.283 157.603 197.112 157.475C196.983 157.303 196.769 157.261 196.469 157.261H196.17V157.047H198.91C199.595 157.047 200.109 157.132 200.494 157.261C200.879 157.389 201.222 157.646 201.479 157.946C201.736 158.288 201.864 158.673 201.864 159.102C201.864 159.701 201.65 160.215 201.265 160.6C200.879 160.985 200.28 161.157 199.552 161.157C199.381 161.157 199.167 161.157 198.953 161.157C198.739 161.157 198.525 161.071 198.268 161.028H198.311ZM198.311 160.728C198.311 160.728 198.696 160.771 198.824 160.814C198.996 160.814 199.124 160.814 199.21 160.814C199.595 160.814 199.937 160.686 200.194 160.343C200.494 160.043 200.622 159.658 200.622 159.187C200.622 158.845 200.58 158.588 200.408 158.288C200.28 158.031 200.066 157.817 199.852 157.689C199.638 157.56 199.338 157.475 199.038 157.475C198.867 157.475 198.61 157.475 198.311 157.603V160.728Z" fill="white"/>
<path d="M199.295 179.738C200.28 179.738 201.093 180.08 201.821 180.808C202.549 181.536 202.891 182.478 202.891 183.591C202.891 184.704 202.549 185.689 201.821 186.417C201.093 187.187 200.237 187.53 199.21 187.53C198.182 187.53 197.326 187.145 196.598 186.417C195.913 185.689 195.57 184.747 195.57 183.591C195.57 182.435 195.956 181.45 196.769 180.68C197.497 180.037 198.31 179.695 199.295 179.695V179.738ZM199.21 180.123C198.525 180.123 198.011 180.38 197.583 180.851C197.069 181.45 196.812 182.392 196.812 183.591C196.812 184.79 197.069 185.774 197.583 186.417C197.968 186.93 198.525 187.145 199.167 187.145C199.852 187.145 200.451 186.888 200.922 186.331C201.35 185.774 201.607 184.918 201.607 183.719C201.607 182.435 201.35 181.493 200.837 180.851C200.451 180.337 199.852 180.123 199.167 180.123H199.21Z" fill="white"/>
<path d="M177.289 151.01C178.274 151.01 179.087 151.396 179.815 152.123C180.5 152.851 180.885 153.793 180.885 154.906C180.885 156.019 180.5 156.961 179.815 157.732C179.087 158.503 178.231 158.888 177.203 158.888C176.176 158.888 175.32 158.545 174.592 157.775C173.864 157.047 173.521 156.105 173.521 154.906C173.521 153.707 173.907 152.766 174.72 151.995C175.405 151.353 176.261 151.01 177.246 151.01H177.289ZM177.161 151.438C176.476 151.438 175.962 151.695 175.576 152.209C175.063 152.851 174.806 153.75 174.806 154.949C174.806 156.148 175.063 157.133 175.576 157.775C175.962 158.288 176.518 158.545 177.161 158.545C177.803 158.545 178.445 158.246 178.873 157.732C179.344 157.175 179.558 156.319 179.558 155.12C179.558 153.836 179.301 152.894 178.787 152.252C178.402 151.738 177.803 151.481 177.118 151.481L177.161 151.438Z" fill="white"/>
<path d="M193.258 134.827C194.243 134.827 195.056 135.212 195.784 135.94C196.512 136.668 196.855 137.609 196.855 138.723C196.855 139.836 196.512 140.821 195.784 141.548C195.056 142.276 194.2 142.661 193.173 142.661C192.145 142.661 191.289 142.276 190.561 141.548C189.876 140.821 189.534 139.879 189.534 138.723C189.534 137.567 189.962 136.539 190.775 135.811C191.503 135.169 192.316 134.827 193.301 134.827H193.258ZM193.173 135.255C192.488 135.255 191.974 135.512 191.546 135.983C191.032 136.625 190.818 137.524 190.818 138.723C190.818 139.921 191.075 140.906 191.589 141.548C191.974 142.062 192.531 142.319 193.173 142.319C193.815 142.319 194.457 142.062 194.928 141.506C195.399 140.949 195.613 140.093 195.613 138.894C195.613 137.652 195.356 136.668 194.885 136.025C194.5 135.512 193.901 135.298 193.216 135.298L193.173 135.255Z" fill="white"/>
<path d="M197.583 134.527H199.809V135.169H197.583V134.527Z" fill="white"/>
<path d="M304.83 173.273H306.8L311.21 178.71V174.557C311.21 174.086 311.167 173.83 311.081 173.701C310.953 173.53 310.739 173.487 310.482 173.487H310.225V173.273H312.751V173.487H312.494C312.194 173.487 311.98 173.573 311.852 173.744C311.766 173.872 311.724 174.129 311.724 174.515V180.594H311.552L306.757 174.771V179.224C306.757 179.652 306.8 179.952 306.928 180.038C307.057 180.209 307.271 180.294 307.528 180.294H307.785V180.466H305.259V180.294H305.516C305.858 180.294 306.029 180.209 306.201 179.995C306.286 179.866 306.286 179.609 306.286 179.224V174.215C306.072 174.001 305.901 173.83 305.815 173.744C305.687 173.658 305.516 173.616 305.344 173.53C305.216 173.53 305.087 173.53 304.873 173.53V173.316L304.83 173.273Z" fill="white"/>
<path d="M304.017 135.297H305.986L310.396 140.734V136.581C310.396 136.11 310.31 135.853 310.225 135.725C310.096 135.554 309.882 135.511 309.625 135.511H309.368V135.297H311.894V135.511H311.638C311.338 135.511 311.124 135.597 310.995 135.768C310.91 135.896 310.867 136.153 310.867 136.539V142.618H310.696L305.943 136.795V141.248C305.943 141.719 305.986 141.976 306.072 142.061C306.2 142.19 306.414 142.275 306.714 142.275H306.971V142.49H304.445V142.275H304.702C305.001 142.275 305.216 142.19 305.344 142.019C305.43 141.89 305.472 141.633 305.472 141.248V136.196C305.258 135.939 305.13 135.811 305.001 135.725C304.916 135.639 304.745 135.554 304.53 135.511C304.445 135.511 304.274 135.468 304.059 135.468V135.254L304.017 135.297Z" fill="white"/>
<path d="M268.439 190.484H270.409L274.818 195.921V191.769C274.818 191.34 274.775 191.041 274.647 190.955C274.519 190.784 274.305 190.741 274.048 190.741H273.791V190.527H276.317V190.741H276.06C275.76 190.741 275.546 190.827 275.418 190.998C275.332 191.126 275.289 191.383 275.289 191.769V197.848H275.118L270.366 192.025V196.478C270.366 196.949 270.408 197.206 270.494 197.334C270.623 197.463 270.837 197.548 271.136 197.548H271.393V197.762H268.867V197.548H269.124C269.424 197.548 269.638 197.463 269.766 197.249C269.852 197.163 269.895 196.863 269.895 196.478V191.469C269.681 191.212 269.552 191.041 269.424 190.998C269.295 190.912 269.167 190.827 268.953 190.784C268.867 190.784 268.696 190.741 268.482 190.741V190.527L268.439 190.484Z" fill="white"/>
<path d="M249.815 159.958H251.784L256.194 165.352V161.156C256.194 160.728 256.151 160.428 256.023 160.343C255.894 160.172 255.68 160.129 255.38 160.129H255.124V159.915H257.607V160.129H257.35C257.05 160.129 256.836 160.214 256.665 160.386C256.579 160.514 256.536 160.771 256.536 161.156V167.236H256.365L251.613 161.413V165.866C251.613 166.294 251.656 166.594 251.741 166.722C251.87 166.851 252.084 166.936 252.383 166.936H252.64V167.107H250.114V166.936H250.371C250.714 166.936 250.885 166.851 251.056 166.636C251.142 166.508 251.185 166.294 251.185 165.866V160.857C250.971 160.6 250.799 160.428 250.714 160.386C250.585 160.3 250.457 160.214 250.243 160.172C250.157 160.172 249.986 160.172 249.772 160.172V159.958H249.815Z" fill="white"/>
<path d="M337.368 153.664H339.338L343.748 159.101V154.906C343.748 154.478 343.748 154.178 343.619 154.092C343.491 153.964 343.277 153.878 342.977 153.878H342.72V153.707H345.203V153.878H344.947C344.647 153.878 344.433 153.964 344.304 154.178C344.219 154.306 344.176 154.563 344.176 154.949V161.028H343.962L339.209 155.205V159.658C339.209 160.086 339.21 160.386 339.338 160.471C339.466 160.6 339.68 160.686 339.98 160.686H340.237V160.9H337.711V160.686H337.968C338.268 160.686 338.482 160.6 338.61 160.386C338.696 160.3 338.696 160 338.696 159.615V154.563C338.482 154.349 338.353 154.178 338.225 154.092C338.096 154.007 337.968 153.964 337.754 153.878C337.668 153.878 337.497 153.835 337.283 153.835V153.664H337.368Z" fill="white"/>
<path d="M274.561 116.717C275.503 116.717 276.316 117.059 277.001 117.787C277.686 118.472 278.029 119.371 278.029 120.441C278.029 121.512 277.686 122.453 277.001 123.181C276.316 123.909 275.46 124.252 274.475 124.252C273.491 124.252 272.635 123.909 271.992 123.181C271.307 122.453 270.965 121.554 270.965 120.441C270.965 119.328 271.35 118.343 272.121 117.616C272.806 117.016 273.619 116.674 274.561 116.674V116.717ZM274.433 117.102C273.791 117.102 273.277 117.359 272.891 117.83C272.378 118.429 272.164 119.328 272.164 120.441C272.164 121.554 272.42 122.539 272.934 123.181C273.32 123.652 273.833 123.909 274.475 123.909C275.16 123.909 275.717 123.652 276.188 123.139C276.616 122.625 276.83 121.769 276.83 120.613C276.83 119.371 276.573 118.472 276.102 117.872C275.717 117.402 275.16 117.145 274.475 117.145L274.433 117.102Z" fill="white"/>
<path d="M290.231 244.471H292.2L296.61 249.909V245.756C296.61 245.328 296.61 245.028 296.482 244.942C296.353 244.771 296.139 244.728 295.839 244.728H295.625V244.514H298.151V244.728H297.894C297.595 244.728 297.381 244.814 297.252 244.985C297.167 245.114 297.124 245.37 297.124 245.756V251.835H296.953L292.2 246.013V250.465C292.2 250.893 292.2 251.193 292.329 251.279C292.457 251.407 292.671 251.493 292.971 251.493H293.228V251.707H290.702V251.493H290.959C291.258 251.493 291.472 251.407 291.644 251.236C291.729 251.107 291.772 250.851 291.772 250.465V245.413C291.558 245.156 291.387 244.985 291.301 244.942C291.173 244.857 291.044 244.814 290.787 244.728C290.702 244.728 290.531 244.685 290.317 244.685V244.471H290.231Z" fill="white"/>
<path d="M356.207 136.068H359.675V133.927C359.675 133.542 359.675 133.285 359.632 133.157C359.589 133.071 359.503 132.986 359.375 132.943C359.204 132.857 359.075 132.814 358.904 132.814H358.647V132.643H361.858V132.814H361.601C361.601 132.814 361.259 132.857 361.087 132.943C360.959 133.028 360.873 133.071 360.831 133.2C360.788 133.328 360.745 133.585 360.745 133.927V138.765C360.745 139.151 360.745 139.408 360.831 139.536C360.831 139.622 360.959 139.707 361.045 139.75C361.216 139.836 361.387 139.879 361.558 139.879H361.815V140.093H358.604V139.879H358.861C359.161 139.879 359.375 139.793 359.546 139.622C359.632 139.493 359.675 139.236 359.675 138.765V136.496H356.207V138.765C356.207 139.151 356.207 139.408 356.292 139.536C356.292 139.622 356.421 139.707 356.506 139.75C356.678 139.836 356.849 139.879 357.02 139.879H357.277V140.093H354.066V139.879H354.323C354.623 139.879 354.879 139.793 355.008 139.622C355.093 139.493 355.136 139.236 355.136 138.765V133.927C355.136 133.542 355.136 133.285 355.094 133.157C355.051 133.071 354.965 132.986 354.879 132.943C354.708 132.857 354.537 132.814 354.366 132.814H354.109V132.643H357.32V132.814H357.063C357.063 132.814 356.72 132.857 356.549 132.943C356.464 133.028 356.335 133.071 356.335 133.2C356.292 133.328 356.249 133.585 356.249 133.927V136.068H356.207Z" fill="white"/>
<path d="M354.794 163.983H358.261V161.842C358.261 161.457 358.262 161.2 358.176 161.071C358.176 160.986 358.047 160.9 357.962 160.857C357.79 160.772 357.662 160.729 357.448 160.729H357.191V160.515H360.402V160.729H360.145C360.145 160.729 359.803 160.772 359.632 160.857C359.503 160.943 359.417 160.986 359.375 161.114C359.332 161.243 359.332 161.457 359.332 161.842V166.68C359.332 167.065 359.332 167.322 359.417 167.451C359.417 167.536 359.503 167.622 359.632 167.707C359.803 167.793 359.974 167.836 360.145 167.836H360.402V168.05H357.191V167.836H357.448C357.748 167.836 357.962 167.75 358.133 167.579C358.219 167.451 358.261 167.151 358.261 166.723V164.454H354.794V166.723C354.794 167.108 354.794 167.365 354.879 167.493C354.879 167.579 355.008 167.665 355.136 167.75C355.307 167.836 355.436 167.879 355.65 167.879H355.95V168.093H352.738V167.879H352.995C353.295 167.879 353.509 167.793 353.68 167.622C353.766 167.493 353.809 167.194 353.809 166.765V161.928C353.809 161.542 353.809 161.285 353.723 161.157C353.723 161.071 353.595 160.986 353.509 160.943C353.338 160.857 353.167 160.814 352.995 160.814H352.738V160.6H355.95V160.814H355.65C355.65 160.814 355.307 160.857 355.136 160.943C355.008 161.028 354.922 161.071 354.879 161.2C354.836 161.328 354.794 161.542 354.794 161.928V164.068V163.983Z" fill="white"/>
<path d="M324.054 115.047H327.522V112.906C327.522 112.521 327.521 112.264 327.436 112.136C327.436 112.05 327.35 111.964 327.222 111.879C327.051 111.793 326.879 111.75 326.708 111.75H326.451V111.536H329.662V111.75H329.405C329.405 111.75 329.063 111.75 328.892 111.879C328.763 111.922 328.678 112.05 328.635 112.136C328.592 112.264 328.592 112.521 328.592 112.864V117.659C328.592 118.044 328.592 118.301 328.635 118.429C328.635 118.515 328.72 118.601 328.849 118.686C329.02 118.772 329.191 118.815 329.362 118.815H329.619V119.029H326.408V118.815H326.665C326.965 118.815 327.179 118.729 327.35 118.558C327.436 118.429 327.479 118.172 327.479 117.701V115.432H324.011V117.701C324.011 118.087 324.011 118.344 324.096 118.472C324.096 118.558 324.225 118.643 324.353 118.729C324.525 118.815 324.653 118.857 324.867 118.857H325.124V119.071H321.913V118.857H322.17C322.47 118.857 322.684 118.772 322.855 118.601C322.941 118.472 322.983 118.215 322.983 117.744V112.949C322.983 112.564 322.983 112.307 322.94 112.178C322.94 112.093 322.812 112.007 322.726 111.922C322.555 111.836 322.384 111.793 322.213 111.793H321.956V111.579H325.167V111.793H324.91C324.91 111.793 324.567 111.793 324.396 111.922C324.268 111.964 324.182 112.093 324.139 112.178C324.139 112.307 324.054 112.564 324.054 112.906V115.047Z" fill="white"/>
<path d="M340.58 87.7746H342.549L346.959 93.2119V89.0162C346.959 88.588 346.959 88.2884 346.788 88.2027C346.659 88.0743 346.445 87.9887 346.145 87.9887H345.889V87.7746H348.415V87.9887H348.158C347.858 87.9887 347.644 88.0743 347.515 88.2884C347.43 88.4168 347.387 88.6309 347.387 89.059V95.1385H347.216L342.463 89.3159V93.7685C342.463 94.2394 342.506 94.4963 342.592 94.6248C342.72 94.7532 342.934 94.8388 343.234 94.8388H343.491V95.0529H340.965V94.8388H341.222C341.521 94.8388 341.736 94.7532 341.864 94.5819C341.95 94.4535 341.993 94.1966 341.993 93.8113V88.8021C341.778 88.5453 341.607 88.374 341.522 88.2884C341.436 88.2455 341.265 88.1599 341.051 88.0743C340.922 88.0743 340.794 88.0315 340.58 88.0315V87.8174V87.7746Z" fill="white"/>
<path d="M373.546 68.3371H375.515L379.925 73.7744V69.5787C379.925 69.1506 379.882 68.8509 379.797 68.7653C379.668 68.594 379.454 68.5512 379.154 68.5512H378.897V68.3371H381.423V68.5512H381.167C380.867 68.5512 380.653 68.6368 380.524 68.8509C380.439 68.9793 380.396 69.2362 380.396 69.6215V75.701H380.225L375.43 69.8784V74.331C375.43 74.7591 375.472 75.0588 375.558 75.1445C375.686 75.2729 375.9 75.3585 376.2 75.3585H376.457V75.5726H373.974V75.3585H374.231C374.531 75.3585 374.745 75.2729 374.873 75.1016C374.959 74.9732 375.001 74.7163 375.001 74.331V69.279C374.787 69.0221 374.616 68.8509 374.53 68.8081C374.445 68.7225 374.274 68.6796 374.06 68.594C373.931 68.594 373.803 68.5512 373.589 68.5512V68.3371H373.546Z" fill="white"/>
<path d="M307.442 68.3371H309.411L313.821 73.7744V69.5787C313.821 69.1506 313.778 68.8509 313.693 68.7653C313.564 68.594 313.35 68.5512 313.051 68.5512H312.794V68.3371H315.277V68.5512H315.02C314.72 68.5512 314.506 68.6368 314.378 68.8509C314.292 68.9793 314.292 69.2362 314.292 69.6215V75.701H314.078L309.326 69.8784V74.331C309.326 74.7591 309.326 75.0588 309.497 75.1445C309.626 75.2729 309.84 75.3585 310.096 75.3585H310.353V75.5726H307.827V75.3585H308.084C308.384 75.3585 308.598 75.2729 308.726 75.1016C308.812 74.9732 308.855 74.7163 308.855 74.331V69.279C308.641 69.0221 308.47 68.8509 308.384 68.8081C308.256 68.7225 308.127 68.6796 307.913 68.594C307.827 68.594 307.656 68.5512 307.442 68.5512V68.3371Z" fill="white"/>
<path d="M377.699 106.998C378.641 106.998 379.454 107.383 380.139 108.068C380.824 108.796 381.167 109.652 381.167 110.723C381.167 111.793 380.824 112.735 380.139 113.463C379.454 114.19 378.598 114.533 377.613 114.533C376.628 114.533 375.772 114.19 375.087 113.463C374.402 112.778 374.06 111.836 374.06 110.723C374.06 109.609 374.445 108.625 375.215 107.94C375.9 107.298 376.714 106.998 377.656 106.998H377.699ZM377.613 107.383C376.971 107.383 376.457 107.64 376.072 108.111C375.558 108.71 375.344 109.567 375.344 110.723C375.344 111.879 375.601 112.82 376.115 113.463C376.5 113.934 377.014 114.19 377.656 114.19C378.341 114.19 378.897 113.934 379.326 113.377C379.754 112.863 380.011 112.007 380.011 110.894C380.011 109.652 379.797 108.753 379.283 108.111C378.897 107.64 378.384 107.383 377.656 107.383H377.613Z" fill="white"/>
<path d="M294.341 92.1842H297.809V90.0436C297.809 89.6582 297.809 89.4014 297.766 89.2729C297.723 89.1873 297.638 89.1016 297.552 89.016C297.381 88.9304 297.21 88.8876 297.038 88.8876H296.781V88.6735H299.992V88.8876H299.736C299.736 88.8876 299.393 88.8876 299.222 89.016C299.136 89.0588 299.05 89.1445 299.008 89.2729C299.008 89.4014 298.965 89.6582 298.965 90.0007V94.8387C298.965 95.224 298.965 95.4809 299.05 95.6093C299.05 95.6949 299.136 95.7806 299.265 95.8662C299.436 95.9518 299.607 95.9946 299.778 95.9946H300.035V96.2087H296.824V95.9946H297.081C297.381 95.9946 297.595 95.909 297.766 95.7377C297.852 95.6093 297.894 95.3096 297.894 94.8815V92.6124H294.427V94.8815C294.427 95.2668 294.427 95.5237 294.512 95.6521C294.512 95.7377 294.641 95.8234 294.726 95.909C294.898 95.9946 295.069 96.0374 295.24 96.0374H295.497V96.2515H292.286V96.0374H292.543C292.842 96.0374 293.057 95.9518 293.228 95.7806C293.313 95.6521 293.356 95.3524 293.356 94.9243V90.0864C293.356 89.701 293.356 89.4442 293.271 89.3157C293.271 89.2301 293.142 89.1445 293.056 89.0588C292.885 88.9732 292.714 88.9304 292.543 88.9304H292.286V88.7163H295.497V88.9304H295.24C295.24 88.9304 294.898 88.9304 294.726 89.0588C294.598 89.1017 294.512 89.1873 294.469 89.3157C294.469 89.4442 294.427 89.7011 294.427 90.0436V92.1842H294.341Z" fill="white"/>
<path d="M295.54 57.6335H299.008V55.4928C299.008 55.1075 299.008 54.8506 298.922 54.7222C298.922 54.6365 298.794 54.5509 298.708 54.4653C298.537 54.3796 298.365 54.3368 298.194 54.3368H297.937V54.1228H301.148V54.3368H300.891C300.891 54.3368 300.549 54.3368 300.378 54.4653C300.249 54.5081 300.164 54.6365 300.121 54.7222C300.078 54.8506 300.078 55.1075 300.078 55.45V60.2879C300.078 60.6732 300.078 60.9301 300.164 61.0585C300.164 61.1442 300.249 61.2298 300.378 61.3154C300.549 61.4011 300.72 61.4439 300.891 61.4439H301.148V61.6579H297.937V61.4439H298.194C298.494 61.4439 298.708 61.3582 298.879 61.187C298.965 61.0585 299.008 60.7588 299.008 60.3307V58.0616H295.54V60.3307C295.54 60.716 295.54 60.9729 295.625 61.1014C295.625 61.187 295.711 61.2726 295.839 61.3582C296.011 61.4439 296.182 61.4867 296.353 61.4867H296.61V61.7007H293.399V61.4867H293.656C293.956 61.4867 294.213 61.401 294.341 61.2298C294.427 61.1013 294.469 60.8017 294.469 60.3735V55.5356C294.469 55.1503 294.469 54.8934 294.384 54.7649C294.341 54.6793 294.255 54.5937 294.17 54.5081C293.998 54.4224 293.827 54.3796 293.656 54.3796H293.399V54.1656H296.61V54.3796H296.353C296.353 54.3796 296.011 54.3796 295.839 54.5081C295.711 54.5509 295.625 54.6793 295.625 54.7649C295.583 54.8934 295.54 55.1503 295.54 55.4928V57.6335Z" fill="white"/>
<path d="M387.888 209.279H389.858L394.267 214.716V210.52C394.267 210.092 394.225 209.793 394.139 209.707C394.01 209.578 393.796 209.493 393.539 209.493H393.283V209.279H395.809V209.493H395.552C395.252 209.493 395.038 209.578 394.867 209.793C394.781 209.921 394.738 210.135 394.738 210.563V216.643H394.524L389.772 210.82V215.273C389.772 215.701 389.772 216.001 389.9 216.086C390.029 216.215 390.243 216.3 390.543 216.3H390.799V216.514H388.274V216.3H388.53C388.83 216.3 389.044 216.215 389.173 216.043C389.258 215.915 389.258 215.658 389.258 215.273V210.221C389.044 209.964 388.916 209.835 388.787 209.75C388.659 209.664 388.53 209.578 388.316 209.536C388.188 209.536 388.059 209.493 387.845 209.493V209.279H387.888Z" fill="white"/>
<path d="M354.965 228.673H356.934L361.387 234.111V229.915C361.387 229.487 361.301 229.187 361.216 229.101C361.087 228.973 360.873 228.887 360.573 228.887H360.317V228.673H362.8V228.887H362.543C362.243 228.887 362.029 228.973 361.901 229.144C361.815 229.273 361.772 229.53 361.772 229.915V235.994H361.601L356.849 230.172V234.624C356.849 235.095 356.891 235.352 357.02 235.481C357.148 235.609 357.362 235.695 357.619 235.695H357.876V235.866H355.35V235.695H355.607C355.907 235.695 356.121 235.566 356.292 235.395C356.378 235.309 356.421 235.01 356.421 234.624V229.615C356.206 229.358 356.035 229.187 355.95 229.101C355.864 229.016 355.693 228.973 355.479 228.887C355.393 228.887 355.222 228.845 355.008 228.845V228.631L354.965 228.673Z" fill="white"/>
<path d="M325.509 209.493C326.451 209.493 327.265 209.836 327.95 210.563C328.635 211.291 328.977 212.19 328.977 213.261C328.977 214.331 328.635 215.273 327.95 216.001C327.265 216.729 326.408 217.071 325.424 217.071C324.439 217.071 323.583 216.729 322.94 216.001C322.255 215.316 321.913 214.374 321.913 213.261C321.913 212.147 322.298 211.163 323.069 210.435C323.754 209.836 324.567 209.493 325.509 209.493ZM325.424 209.878C324.782 209.878 324.225 210.092 323.882 210.606C323.369 211.206 323.154 212.105 323.154 213.218C323.154 214.331 323.411 215.316 323.925 215.958C324.311 216.429 324.824 216.686 325.466 216.686C326.109 216.686 326.708 216.429 327.136 215.915C327.564 215.358 327.778 214.545 327.778 213.389C327.778 212.147 327.564 211.248 327.051 210.649C326.665 210.178 326.109 209.921 325.424 209.921V209.878Z" fill="white"/>
<path d="M392.47 247.725C393.411 247.725 394.225 248.068 394.91 248.796C395.595 249.523 395.937 250.38 395.937 251.45C395.937 252.52 395.595 253.462 394.867 254.19C394.182 254.918 393.369 255.26 392.384 255.26C391.399 255.26 390.543 254.918 389.858 254.19C389.173 253.505 388.83 252.563 388.83 251.45C388.83 250.337 389.216 249.352 389.986 248.624C390.671 247.982 391.485 247.682 392.427 247.682L392.47 247.725ZM392.341 248.11C391.699 248.11 391.185 248.325 390.8 248.796C390.329 249.395 390.072 250.294 390.072 251.407C390.072 252.606 390.329 253.505 390.843 254.147C391.228 254.618 391.742 254.875 392.384 254.875C393.026 254.875 393.626 254.618 394.054 254.104C394.482 253.548 394.739 252.734 394.739 251.578C394.739 250.337 394.482 249.438 394.011 248.796C393.626 248.325 393.069 248.068 392.384 248.068L392.341 248.11Z" fill="white"/>
<path d="M307.699 230.086H311.167V227.946C311.167 227.56 311.166 227.303 311.124 227.175C311.081 227.089 310.995 227.004 310.867 226.961C310.696 226.875 310.524 226.832 310.353 226.832H310.096V226.618H313.307V226.832H313.007C313.007 226.832 312.665 226.832 312.537 226.961C312.408 227.004 312.323 227.089 312.28 227.218C312.237 227.346 312.194 227.603 312.194 227.946V232.784C312.194 233.169 312.194 233.426 312.28 233.554C312.28 233.64 312.408 233.725 312.494 233.768C312.665 233.854 312.836 233.897 313.007 233.897H313.307V234.111H310.096V233.897H310.353C310.653 233.897 310.867 233.811 311.038 233.64C311.124 233.511 311.167 233.255 311.167 232.784V230.514H307.699V232.784C307.699 233.169 307.699 233.426 307.784 233.554C307.784 233.64 307.913 233.725 307.998 233.768C308.17 233.854 308.341 233.897 308.512 233.897H308.769V234.111H305.558V233.897H305.815C306.115 233.897 306.329 233.811 306.457 233.64C306.543 233.511 306.585 233.255 306.585 232.784V227.946C306.585 227.56 306.586 227.303 306.5 227.175C306.5 227.089 306.371 227.004 306.286 226.961C306.115 226.875 305.943 226.832 305.772 226.832H305.515V226.618H308.726V226.832H308.469C308.469 226.832 308.127 226.832 307.956 226.961C307.827 227.004 307.784 227.089 307.699 227.218C307.656 227.346 307.613 227.603 307.613 227.946V230.086H307.699Z" fill="white"/>
<path d="M273.534 239.376H277.001V237.236C277.001 236.85 277.002 236.594 276.959 236.465C276.959 236.379 276.83 236.294 276.745 236.208C276.573 236.123 276.402 236.08 276.231 236.08H275.974V235.866H279.185V236.08H278.928C278.928 236.08 278.586 236.123 278.414 236.208C278.286 236.294 278.2 236.379 278.157 236.465C278.157 236.594 278.115 236.85 278.115 237.193V242.031C278.115 242.416 278.115 242.673 278.2 242.759C278.2 242.844 278.329 242.93 278.414 243.016C278.586 243.101 278.757 243.144 278.928 243.144H279.185V243.358H275.974V243.144H276.231C276.531 243.144 276.745 243.058 276.916 242.887C277.001 242.759 277.044 242.459 277.044 242.031V239.762H273.576V242.031C273.576 242.416 273.576 242.673 273.662 242.759C273.705 242.844 273.79 242.93 273.919 243.016C274.047 243.101 274.219 243.144 274.433 243.144H274.69V243.358H271.479V243.144H271.735C272.035 243.144 272.249 243.058 272.421 242.887C272.506 242.759 272.549 242.459 272.549 242.031V237.193C272.549 236.808 272.549 236.551 272.463 236.422C272.463 236.337 272.335 236.251 272.249 236.165C272.078 236.08 271.907 236.037 271.735 236.037H271.479V235.823H274.69V236.037H274.433C274.433 236.037 274.09 236.08 273.919 236.165C273.79 236.251 273.748 236.337 273.662 236.422C273.619 236.551 273.576 236.808 273.576 237.15V239.291L273.534 239.376Z" fill="white"/>
<path d="M340.622 250.294H344.09V248.153C344.09 247.768 344.09 247.511 344.005 247.383C344.005 247.297 343.876 247.212 343.791 247.169C343.619 247.083 343.448 247.04 343.277 247.04H343.02V246.826H346.231V247.04H345.974C345.974 247.04 345.632 247.083 345.46 247.169C345.332 247.254 345.246 247.34 345.204 247.426C345.161 247.554 345.161 247.811 345.161 248.153V252.991C345.161 253.377 345.161 253.634 345.246 253.762C345.246 253.848 345.375 253.933 345.46 253.976C345.632 254.062 345.803 254.105 345.974 254.105H346.231V254.319H343.02V254.105H343.277C343.577 254.105 343.791 254.019 343.962 253.848C344.048 253.719 344.09 253.462 344.09 252.991V250.722H340.622V252.991C340.622 253.377 340.622 253.634 340.708 253.762C340.708 253.848 340.794 253.933 340.922 253.976C341.093 254.062 341.265 254.105 341.436 254.105H341.693V254.319H338.482V254.105H338.739C339.038 254.105 339.295 254.019 339.424 253.848C339.509 253.719 339.552 253.462 339.552 252.991V248.153C339.552 247.768 339.552 247.511 339.509 247.383C339.509 247.297 339.381 247.212 339.252 247.169C339.081 247.083 338.91 247.04 338.739 247.04H338.482V246.826H341.693V247.04H341.436C341.436 247.04 341.093 247.083 340.922 247.169C340.794 247.254 340.751 247.34 340.665 247.426C340.665 247.554 340.622 247.811 340.622 248.153V250.294Z" fill="white"/>
<path d="M219.289 217.584L219.161 217.242L237.956 209.15L238.127 209.536L219.289 217.584Z" fill="white"/>
<path fill-rule="evenodd" clip-rule="evenodd" d="M219.246 217.414L227.124 236.209L228.323 234.197L229.35 232.356L219.246 217.414Z" fill="white"/>
<path d="M227.081 236.466L226.995 236.295L219.118 217.5L219.289 217.414L229.436 232.399L228.408 234.282L227.081 236.466ZM219.717 218.356L227.124 236.038L228.237 234.197L229.222 232.441L219.717 218.399V218.356Z" fill="white"/>
<path d="M267.283 217.799L248.659 209.707L248.83 209.364L267.411 217.456L267.283 217.799Z" fill="white"/>
<path fill-rule="evenodd" clip-rule="evenodd" d="M228.323 234.197L227.124 236.209L259.277 235.995L258.249 234.197L257.051 232.356H229.35L228.323 234.197Z" fill="white"/>
<path d="M226.952 236.337L228.237 234.154L229.264 232.27H257.093L258.292 234.154L259.405 236.123H259.234L226.91 236.337H226.952ZM229.436 232.484L228.451 234.239L227.338 236.08L259.148 235.866L258.206 234.197L257.008 232.441H229.436V232.484Z" fill="white"/>
<path fill-rule="evenodd" clip-rule="evenodd" d="M267.368 217.627L257.05 232.355L258.249 234.196L259.277 235.994L267.368 217.627Z" fill="white"/>
<path d="M259.277 236.251L258.163 234.282L256.922 232.398L267.24 217.584L267.411 217.67L259.234 236.251H259.277ZM257.179 232.398L258.335 234.153L259.234 235.78L266.812 218.526L257.136 232.355L257.179 232.398Z" fill="white"/>
<path fill-rule="evenodd" clip-rule="evenodd" d="M203.662 158.373L214.794 154.349L213.766 152.722L212.781 151.095L203.662 158.373Z" fill="white"/>
<path d="M203.106 158.674L212.781 150.967L214.922 154.392H214.794L203.106 158.674ZM212.739 151.224L204.219 158.032L214.622 154.221L212.739 151.181V151.224Z" fill="white"/>
<path d="M199.595 166.68H199.209V177.768H199.595V166.68Z" fill="white"/>
<path d="M194.714 157.989L182.384 154.735L182.469 154.35L194.799 157.561L194.714 157.989Z" fill="white"/>
<path d="M194.714 162.013L182.384 158.802L182.469 158.374L194.799 161.628L194.714 162.013Z" fill="white"/>
<path d="M197.092 145.238L193.462 146.07L193.643 146.863L197.274 146.03L197.092 145.238Z" fill="white"/>
<path d="M197.317 148.199L194.864 148.802L195.058 149.592L197.511 148.989L197.317 148.199Z" fill="white"/>
<path d="M196.512 152.508L196.255 151.737L197.454 151.309L197.711 152.08L196.512 152.508Z" fill="white"/>
<path d="M219.118 195.535L204.39 186.844L204.561 186.502L219.332 195.193L219.118 195.535Z" fill="white"/>
<path d="M219.417 195.407H219.032V217.456H219.417V195.407Z" fill="white"/>
<path d="M219.417 126.649H219.032V143.603H219.417V126.649Z" fill="white"/>
<path d="M275.632 158.288L275.246 158.074L285.778 138.679L286.121 138.851L275.632 158.288Z" fill="white"/>
<path d="M286.763 177.169V176.784L303.717 176.355L303.76 176.784L286.763 177.169Z" fill="white"/>
<path d="M285.95 138.979V138.593L302.947 138.379V138.765L285.95 138.979Z" fill="white"/>
<path d="M312.194 171.004L311.851 170.832L319.344 157.089L319.686 157.261L312.194 171.004Z" fill="white"/>
<path d="M307.955 171.004L307.613 170.832L315.276 157.089L315.619 157.261L307.955 171.004Z" fill="white"/>
<path d="M319.344 157.26L311.252 144.117L311.595 143.945L319.687 157.046L319.344 157.26Z" fill="white"/>
<path d="M267.283 191.725L252.127 185.261L252.255 184.875L267.411 191.34L267.283 191.725Z" fill="white"/>
<path d="M277.43 188.214L277.087 188L286.592 176.869L286.934 177.126L277.43 188.214Z" fill="white"/>
<path d="M252.384 185.089L251.998 185.046L253.197 168.692L253.582 168.735L252.384 185.089Z" fill="white"/>
<path d="M256.237 182.863L255.809 182.82L256.836 168.692L257.264 168.735L256.237 182.863Z" fill="white"/>
<path d="M275.606 157.993L275.239 158.214L286.564 177.032L286.931 176.812L275.606 157.993Z" fill="white"/>
<path d="M282.139 176.698L273.448 162.312L273.79 162.098L282.481 176.484L282.139 176.698Z" fill="white"/>
<path d="M259.105 162.227L259.02 161.799L275.375 157.988L275.503 158.374L259.105 162.227Z" fill="white"/>
<path d="M319.515 157.389V156.961L336.298 156.747V157.175L319.515 157.389Z" fill="white"/>
<path d="M285.778 138.85L277.901 125.749L278.243 125.535L286.121 138.679L285.778 138.85Z" fill="white"/>
<path d="M288.005 135.425L279.485 121.468L279.87 121.297L288.347 135.211L288.005 135.425Z" fill="white"/>
<path d="M267.54 217.671L267.154 217.585L271.008 199.175L271.393 199.261L267.54 217.671Z" fill="white"/>
<path d="M301.32 268.618L296.053 253.291L296.439 253.12L301.705 268.49L301.32 268.618Z" fill="white"/>
<path d="M346.145 151.438L345.846 151.181L353.124 142.062L353.424 142.319L346.145 151.438Z" fill="white"/>
<path d="M351.155 161.799L346.488 159.572L346.702 159.23L351.326 161.414L351.155 161.799Z" fill="white"/>
<path d="M312.408 133.029L312.066 132.772L321.185 121.041L321.485 121.298L312.408 133.029Z" fill="white"/>
<path d="M366.61 90.6428H349.827V91.0281H366.61V90.6428Z" fill="white"/>
<path d="M341.179 85.5053L333.472 71.7622L333.815 71.5481L341.521 85.2913L341.179 85.5053Z" fill="white"/>
<path d="M345.417 85.505L337.326 71.3337L337.668 71.1624L345.76 85.2909L345.417 85.505Z" fill="white"/>
<path d="M366.781 90.9428L366.439 90.7715L374.316 77.0284L374.702 77.1997L366.781 90.9428Z" fill="white"/>
<path d="M344.489 52.1789L333.333 71.4457L333.667 71.6388L344.822 52.372L344.489 52.1789Z" fill="white"/>
<path d="M374.316 66.0679L366.439 52.3248L366.781 52.1535L374.702 65.8967L374.316 66.0679Z" fill="white"/>
<path d="M366.61 52.0249H344.561V52.4103H366.61V52.0249Z" fill="white"/>
<path d="M364.769 55.6645H346.402V56.0926H364.769V55.6645Z" fill="white"/>
<path d="M333.644 71.4624H316.69V71.8478H333.644V71.4624Z" fill="white"/>
<path d="M374.316 104.9L366.439 90.9426L366.781 90.7714L374.702 104.729L374.316 104.9Z" fill="white"/>
<path d="M372.304 108.753L364.213 94.4107L364.555 94.1966L372.647 108.539L372.304 108.753Z" fill="white"/>
<path d="M381.167 66.0678L380.782 65.8966L390.5 48.8996L390.843 49.1137L381.167 66.0678Z" fill="white"/>
<path d="M300.463 86.747L300.121 86.4901L307.228 76.9855L307.527 77.2424L300.463 86.747Z" fill="white"/>
<path d="M306.243 66.7529L302.39 63.1137L302.647 62.814L306.5 66.4532L306.243 66.7529Z" fill="white"/>
<path d="M279.185 114.747L278.543 114.276L280.17 112.05L280.812 112.52L279.185 114.747Z" fill="white"/>
<path d="M282.011 110.937L281.369 110.423L283.424 107.982L284.066 108.496L282.011 110.937Z" fill="white"/>
<path d="M286.397 103.898L284.584 106.337L285.237 106.822L287.05 104.383L286.397 103.898Z" fill="white"/>
<path d="M288.304 102.844L287.662 102.33L289.674 99.8901L290.317 100.404L288.304 102.844Z" fill="white"/>
<path d="M330.518 109.695L329.876 109.224L331.503 106.998L332.188 107.469L330.518 109.695Z" fill="white"/>
<path d="M333.387 105.884L332.745 105.37L334.757 102.93L335.399 103.443L333.387 105.884Z" fill="white"/>
<path d="M336.598 101.817L335.956 101.346L337.797 98.9055L338.439 99.3764L336.598 101.817Z" fill="white"/>
<path d="M362.714 130.716L362.029 130.245L363.656 128.019L364.298 128.49L362.714 130.716Z" fill="white"/>
<path d="M365.54 126.906L364.855 126.392L366.696 123.995L367.338 124.466L365.54 126.906Z" fill="white"/>
<path d="M369.839 120.04L368.023 122.478L368.676 122.964L370.491 120.526L369.839 120.04Z" fill="white"/>
<path d="M372.906 115.841L371.077 118.269L371.727 118.758L373.556 116.33L372.906 115.841Z" fill="white"/>
<path d="M380.567 193.181H358.518V193.609H380.567V193.181Z" fill="white"/>
<path d="M379.155 196.778H360.359V197.163H379.155V196.778Z" fill="white"/>
<path d="M347.772 212.875L347.43 212.661L358.347 193.267L358.69 193.481L347.772 212.875Z" fill="white"/>
<path d="M380.766 193.433L380.436 193.63L388.52 207.154L388.85 206.956L380.766 193.433Z" fill="white"/>
<path d="M355.521 226.404L347.43 212.875L347.772 212.661L355.864 226.19L355.521 226.404Z" fill="white"/>
<path d="M381.338 231.884L380.995 231.67L388.659 217.927L389.044 218.141L381.338 231.884Z" fill="white"/>
<path d="M364.213 232.184V231.756L381.167 231.584V231.97L364.213 232.184Z" fill="white"/>
<path d="M347.644 212.533H330.647V212.961H347.644V212.533Z" fill="white"/>
<path d="M345.803 216.215H330.647V216.6H345.803V216.215Z" fill="white"/>
<path d="M391.099 245.628L382.622 231.071L382.965 230.857L391.442 245.413L391.099 245.628Z" fill="white"/>
<path d="M387.075 245.841L379.368 232.869L379.711 232.698L387.417 245.627L387.075 245.841Z" fill="white"/>
<path d="M358.347 193.48L352.096 182.52L352.439 182.349L358.69 193.266L358.347 193.48Z" fill="white"/>
<path d="M299.436 242.202L299.136 241.945L304.188 236.08L304.488 236.337L299.436 242.202Z" fill="white"/>
<path d="M289.118 245.713L280.426 242.074L280.598 241.689L289.246 245.328L289.118 245.713Z" fill="white"/>
<path d="M347.772 244.857L347.473 244.557L353.937 237.279L354.237 237.579L347.772 244.857Z" fill="white"/>
<path d="M328.335 267.376L327.693 266.905L329.534 264.679L330.133 265.193L328.335 267.376Z" fill="white"/>
<path d="M331.546 263.566L330.947 263.052L332.959 260.612L333.558 261.126L331.546 263.566Z" fill="white"/>
<path d="M336.585 256.493L334.366 258.931L334.968 259.479L337.187 257.041L336.585 256.493Z" fill="white"/>
<path d="M314.977 224.949L314.335 224.435L316.176 222.208L316.818 222.722L314.977 224.949Z" fill="white"/>
<path d="M318.402 221.096L317.803 220.582L319.815 218.141L320.414 218.698L318.402 221.096Z" fill="white"/>
</g>
<g style="mix-blend-mode:soft-light" opacity="0.4">
<path d="M225.711 101.09V63.0714H223.528V101.09V103.273H225.711H263.772V101.09H225.711Z" fill="white"/>
<path d="M235.473 90.3446H228.88V98.3935H235.473V90.3446Z" fill="white"/>
<path d="M244.25 84.0511H237.657V98.4365H244.25V84.0511Z" fill="white"/>
<path d="M252.983 86.2765H246.39V98.3927H252.983V86.2765Z" fill="white"/>
<path d="M261.718 76.0445H255.124V98.3932H261.718V76.0445Z" fill="white"/>
<path d="M262.702 63.7564L256.965 64.3557L258.421 65.9398L247.118 75.6585L241.167 72.8756L228.837 83.0652V86.7472L241.681 76.0866L247.675 78.9551L260.219 67.9092L261.76 69.6218L262.702 63.7564Z" fill="white"/>
</g>
<g style="mix-blend-mode:soft-light" opacity="0.62">
<path d="M61.7354 249.438L67.6437 237.879L69.7844 241.346L71.8823 235.181L73.8089 241.903L79.289 227.646L83.1422 241.903L86.3105 237.065L97.9557 242.973L102.194 236.508L107.289 234.368L113.625 223.878L117.008 222.252V249.438H61.7354Z" fill="white"/>
</g>
<path d="M434.855 37.6402C434.855 39.053 433.313 40.2518 431.43 40.2518H41.5702C39.6864 40.2518 38.1452 39.0958 38.1452 37.6402V35.6708C38.1452 34.2579 39.6864 33.0591 41.5702 33.0591H431.43C433.313 33.0591 434.855 34.2151 434.855 35.6708V37.6402Z" fill="#84372D"/>
<path d="M434.855 280.135C434.855 281.591 433.313 282.747 431.43 282.747H41.5702C39.6864 282.747 38.1452 281.591 38.1452 280.135V278.209C38.1452 276.753 39.6864 275.597 41.5702 275.597H431.43C433.313 275.597 434.855 276.753 434.855 278.209V280.135Z" fill="#84372D"/>
<path d="M430.959 43.677C430.959 42.5638 430.616 41.5791 430.06 40.6801L424.152 45.1326L423.724 268.747L430.103 276.839C430.659 275.983 431.002 274.955 431.002 273.885V43.7198L430.959 43.677Z" fill="#84372D"/>
<path d="M41.099 44.2331C41.099 43.1199 41.4415 42.1352 41.9981 41.2361L47.9064 45.6459L48.3345 269.261L41.9552 277.352C41.3987 276.496 41.0562 275.469 41.0562 274.398V44.1903L41.099 44.2331Z" fill="#84372D"/>
<path d="M266.555 136.924C266.127 136.71 264.543 137.139 263.002 137.866C263.644 137.053 264.286 136.282 264.843 135.94C265.785 135.383 266.427 132.001 265.571 130.845C264.757 129.646 263.002 132.557 262.274 133.499C261.546 134.441 255.638 137.609 254.653 138.38C253.669 139.151 249.773 146.215 249.259 147.028C248.702 147.799 233.032 157.775 227.766 160.301C227.766 160.301 234.916 174.343 235.387 174.001C235.944 173.658 255.595 157.047 256.323 156.447C257.008 155.848 262.659 153.236 264.029 152.38C265.399 151.481 267.669 149.298 268.311 148.484C268.311 148.484 267.369 137.31 266.513 136.924H266.555Z" fill="#E0B8AA"/>
<path d="M264.372 139.493C263.473 140.435 262.274 140.778 261.675 140.221L260.861 139.45C260.262 138.894 260.519 137.652 261.418 136.71L269.21 128.447C270.109 127.463 271.308 127.163 271.907 127.719L272.72 128.49C273.32 129.047 273.063 130.288 272.164 131.23L264.372 139.493Z" fill="white"/>
<path style="mix-blend-mode:multiply" opacity="0.4" d="M248.873 161.371L255.167 156.575L262.617 153.022L266.341 149.768L266.898 148.013L265.956 140.092L262.445 137.609L244.892 155.163L248.873 161.371Z" fill="url(#paint0_linear_7_10696)"/>
<path d="M264.8 150.239L261.589 150.625C261.589 150.625 260.176 151.053 259.234 149.726C258.849 149.169 259.962 148.184 260.861 148.013C261.161 147.97 263.901 147.328 263.901 147.328C263.901 147.328 262.916 147.542 261.975 147.371C260.176 147.071 258.549 146.686 258.806 145.23C259.063 143.775 262.36 144.545 263.516 144.031C262.445 143.989 259.149 143.261 259.406 142.105C259.663 140.992 263.387 140.435 263.687 140.349C263.987 140.264 265.228 139.322 265.228 139.322C265.228 139.322 262.617 139.579 262.146 139.322C261.675 139.108 261.29 138.466 261.589 137.524C261.889 136.582 264.672 135.768 265.271 135.64C265.871 135.512 267.669 133.756 268.482 133.542C269.296 133.328 270.066 135.683 270.323 136.282C270.58 136.882 269.21 137.609 269.381 138.209C269.552 138.808 270.28 140.392 269.895 141.206C269.467 142.062 268.653 143.261 268.653 143.261C268.653 143.261 268.91 144.545 268.739 145.958C268.568 147.371 267.498 147.414 267.712 148.227C267.926 149.041 264.757 150.154 264.757 150.154L264.8 150.239Z" fill="#E0B8AA"/>
<path d="M179.601 116.289C178.188 121.127 178.274 126.521 179.901 130.845C181.527 135.17 174.463 141.891 171.852 141.677C169.24 141.463 154.255 127.677 154.255 127.677C154.255 127.677 156.91 111.194 157.466 107.341C158.066 103.488 179.558 116.332 179.558 116.332L179.601 116.289Z" fill="#CC9987"/>
<path style="mix-blend-mode:multiply" d="M166.8 109.953H166.928L175.534 111.194C175.448 111.879 178.531 118.558 178.659 121.427C176.219 124.466 160.506 140.136 156.353 139.794C152.885 139.494 155.84 133.329 153.827 130.803C154.598 127.335 157.595 107.17 157.638 106.356L166.843 109.995L166.8 109.953Z" fill="url(#paint1_linear_7_10696)"/>
<path d="M190.176 417.353C182.041 413.414 182.512 404.594 183.24 395.732C183.24 395.732 166.885 396.46 167.099 398.643C168.683 416.668 166.8 418.894 166.842 422.405C166.842 423.432 167.913 430.668 168.683 430.668C169.454 430.668 174.592 431.053 175.748 430.496C176.904 429.94 183.368 430.668 187.179 433.151C190.989 435.634 203.277 434.992 204.047 433.279C204.604 432.081 204.861 429.426 204.818 428.527C204.39 425.188 199.252 421.72 190.219 417.353H190.176Z" fill="black"/>
<path d="M183.069 218.612C184.354 224.778 186.409 306.851 184.739 330.612L182.47 417.823C182.47 417.823 189.448 417.781 196.341 419.108C198.268 419.493 195.485 343.927 196.77 335.536C198.054 327.145 197.754 249.224 196.77 241.946C194.629 225.12 194.586 213.603 194.586 213.603L183.069 218.612Z" fill="#212121"/>
<path d="M189.106 327.573C190.39 313.573 190.904 228.331 186.623 217.114L137.687 215.744C124.928 245.071 123.216 323.805 121.931 333.053C120.647 342.3 114.311 415.426 114.311 419.365C122.017 428.612 145.479 427.842 145.993 423.132C148.433 399.756 159.522 324.404 161.919 307.108C162.433 317.854 162.861 327.701 162.861 331.597C162.861 340.93 161.919 418.337 164.402 421.976C164.916 422.747 171.595 420.949 186.537 418.723C188.72 418.38 188.72 331.64 189.106 327.487V327.573Z" fill="black"/>
<path d="M139.014 403.353C139.014 403.353 125.014 398.9 123.087 405.879C121.161 412.815 115.509 419.75 105.619 427.414C102.323 429.983 100.696 432.081 100.311 433.75C99.8396 435.035 99.6256 436.918 101.295 438.545C104.121 441.285 124.243 436.747 126.769 435.163C129.295 433.622 129.98 432.252 132.207 433.194C133.363 433.665 138.415 431.952 138.415 431.952C138.415 431.952 139.827 427.5 139.571 423.047C140.555 416.711 139.87 407.72 139.014 403.31V403.353Z" fill="black"/>
<path d="M198.011 163.597L201.993 135.597L181.442 125.878C180.243 127.377 175.833 134.27 172.237 133.885C168.684 133.499 170.311 140.093 170.311 140.093L172.366 222.508L195.956 222.252C195.956 222.252 199.124 218.612 199.124 203.2C199.124 198.404 199.852 176.27 197.968 163.597H198.011Z" fill="white"/>
<path d="M200.109 134.613C207.045 136.026 219.974 161.842 221.773 162.185C224.213 162.613 230.592 153.109 235.345 155.378C238.341 156.833 241.424 171.005 241.424 171.005C241.424 171.005 241.467 174.472 239.326 177.084C235.773 181.408 223.399 189.286 219.204 188.301C207.344 185.561 199.039 167.922 195.357 164.668C191.632 161.457 178.916 130.289 200.109 134.57V134.613Z" fill="white"/>
<path d="M238.384 152.723L232.39 156.834L237.228 175.586L243.693 172.717L238.384 152.723Z" fill="white"/>
<path d="M175.277 130.888L179.601 137.696L185.937 127.164L181.185 122.497L175.277 130.888Z" fill="#B0DFF4"/>
<path d="M150.959 91.2001C150.617 94.6252 152.929 107.17 152.757 107.812C152.629 108.454 152.201 110.809 151.559 110.552C150.916 110.252 155.754 113.506 156.953 112.478C158.152 111.451 160.935 96.1665 160.421 95.2246C159.907 94.2827 150.916 91.2001 150.916 91.2001H150.959Z" fill="#84372D"/>
<path d="M187.008 108.154C188.978 101.946 190.519 92.4412 188.121 85.591C186.537 81.1812 176.733 77.0283 174.421 76.9427C159.907 76.4289 158.923 85.5482 158.452 95.01C155.241 92.9549 153.742 96.1231 153.871 99.8907C153.956 102.759 155.326 106.056 157.21 107.083C158.023 115.261 163.247 121.597 173.436 123.053C175.235 123.31 176.819 123.01 178.317 122.239C180.586 121.383 182.213 119.456 183.497 116.973C184.782 114.79 186.837 108.582 187.008 108.154Z" fill="#E0B8AA"/>
<path d="M157.852 75.9155C159.136 73.6464 166.201 74.888 165.944 76.6862C165.944 76.6862 169.412 76.8146 169.454 76.8146C169.669 73.4751 165.644 82.2519 165.773 83.0226C157.381 82.8941 162.133 93.1693 161.192 94.5822C159.95 96.466 160.25 98.1357 160.25 98.1357L158.323 97.151L156.311 93.9828L152.672 97.5791C152.672 97.5791 146.849 80.1112 157.852 75.9155Z" fill="#84372D"/>
<path d="M187.222 77.7992C184.054 75.4873 172.623 69.0224 166.886 72.4475C161.191 75.8726 163.846 76.6432 163.846 76.6432L165.773 82.9796C167.785 78.7839 172.751 82.8512 174.549 84.8634C180.115 91.1998 188.207 89.1447 188.25 89.1876C190.604 91.7992 188.849 100.876 188.849 100.876L190.433 100.062C190.433 100.062 192.745 96.0805 192.659 91.0714C192.659 89.8298 192.146 89.0163 192.017 88.0316C194.286 84.8206 190.39 80.0683 187.179 77.7564L187.222 77.7992Z" fill="#84372D"/>
<path d="M188.078 104.857C188.078 108.154 187.094 116.289 185.338 119.328C183.54 122.368 177.76 129.004 174.464 129.004C172.751 126.264 175.02 116.331 175.02 116.331C175.02 116.331 179.73 117.23 183.283 113.934C186.837 110.637 188.078 104.857 188.078 104.857Z" fill="#84372D"/>
<path d="M178.917 108.068C180.458 108.325 182.427 112.863 182.684 114.661C182.941 116.416 177.332 110.808 175.877 111.407L175.706 107.682L178.917 108.068Z" fill="#84372D"/>
<path d="M175.706 107.683C175.706 107.683 172.366 107.469 171.082 108.711C169.797 109.995 166.501 113.677 166.501 113.677C166.501 113.677 168.213 115.261 171.638 112.735C173.479 111.365 175.877 111.408 175.877 111.408L175.706 107.683Z" fill="#84372D"/>
<path d="M159.864 97.2793C160.121 100.576 161.449 106.184 163.632 110.637C165.644 114.833 174.079 115.946 175.834 116.46C176.091 118.472 174.678 129.047 174.678 129.047C174.678 129.047 166.287 128.276 161.663 120.142C159.137 115.732 157.724 110.081 157.809 107.726C157.981 103.83 159.864 97.2793 159.864 97.2793Z" fill="#84372D"/>
<path d="M175.149 200.417C174.763 175.628 172.708 135.726 168.941 133.885C165.73 132.301 154.812 125.022 153.613 122.454L152.672 120.784C147.577 124.851 132.335 131.958 128.311 131.958C128.311 131.958 133.106 155.891 134.005 165.096C135.075 176.27 132.72 198.876 132.078 209.536C131.693 215.573 135.204 222.337 135.204 222.337C135.204 222.337 164.488 223.665 173.821 222.38C176.476 222.038 175.405 214.46 175.149 200.331V200.417Z" fill="#B0DFF4"/>
<path d="M167.699 138.509H172.152L170.696 131.702H164.745L164.702 134.613L167.699 138.509Z" fill="#001C49"/>
<path d="M167.314 137.482L164.831 203.243L175.748 209.451L171.895 137.439L167.314 137.482Z" fill="#001C49"/>
<path d="M174.035 138.338H171.552L170.482 131.702H176.604L176.561 134.613L174.035 138.338Z" fill="#0D3B7F"/>
<path d="M174.249 137.096L183.54 202.901L175.577 209.151L171.295 137.096H174.249Z" fill="#0D3B7F"/>
<path d="M167.228 131.23L158.666 138.508L153.314 129.603L149.803 122.839L153.614 117.101L167.228 131.23Z" fill="white"/>
<path d="M159.179 196.094C156.353 195.366 148.433 199.005 147.748 198.662C147.063 198.32 145.778 207.011 147.534 208.681C149.289 210.35 157.809 211.721 159.35 210.222C160.934 208.724 159.179 196.051 159.179 196.051V196.094Z" fill="#CC9987"/>
<path d="M156.91 196.564C161.79 195.194 164.231 192.711 165.601 192.497C166.971 192.326 173.05 196.864 172.537 198.191C171.637 200.589 166.329 196.436 164.445 196.736C161.362 197.249 156.91 196.522 156.91 196.522V196.564Z" fill="#CC9987"/>
<path d="M162.476 193.31C164.488 193.481 171.937 196.264 171.552 198.491C171.21 200.546 166.671 199.432 166.671 199.432L163.846 198.491C163.846 198.491 172.408 198.876 171.809 202.215C171.338 204.656 164.745 204.484 164.745 204.484C164.745 204.484 169.84 202.858 170.31 205.555C170.739 207.952 163.717 208.209 163.717 208.209C163.717 208.209 169.668 206.668 169.197 208.809C168.726 210.949 161.919 212.448 159.307 212.105C157.167 211.848 156.353 212.105 155.326 209.75C155.155 209.322 155.069 209.237 154.94 208.423C154.855 207.91 153.827 206.882 153.699 205.298C153.57 204.142 154.598 202.344 154.384 201.744C153.271 199.047 155.754 197.163 156.182 196.564C156.867 195.536 156.011 192.839 162.518 193.31H162.476Z" fill="#E0B8AA"/>
<path d="M129.081 131.959C113.583 133.971 105.448 196.35 109.515 205.812C109.943 206.839 126.812 230.515 144.58 213.989C142.225 208.638 142.91 199.304 143.552 196.735C142.054 193.953 132.335 192.711 132.335 192.711C132.977 190.356 133.577 181.794 134.947 163.683C136.488 143.347 129.124 131.959 129.124 131.959H129.081Z" fill="white"/>
<path d="M141.24 196.478L147.834 197.505C147.834 197.505 145.051 209.707 149.118 212.747C144.537 216.044 138.971 214.031 138.971 214.031C138.971 214.031 140.512 196.777 141.24 196.521V196.478Z" fill="white"/>
<path d="M200.409 151.781C204.99 159.402 215.136 174.643 220.745 176.655C226.311 178.668 236.458 175.371 237.828 166.637C240.867 164.625 241.638 164.753 241.638 164.753L243.736 172.759L241.595 175.671C241.595 175.671 225.626 193.481 218.048 189.714C208.158 184.747 198.61 171.603 198.953 168.05C199.595 160.9 200.451 151.824 200.451 151.824L200.409 151.781Z" fill="#B0DFF4"/>
<defs>
<linearGradient id="paint0_linear_7_10696" x1="248.722" y1="158.21" x2="276.946" y2="133.01" gradientUnits="userSpaceOnUse">
<stop offset="0.21" stop-color="white"/>
<stop offset="0.22" stop-color="#FBFBFB"/>
<stop offset="0.31" stop-color="#B9B9B9"/>
<stop offset="0.39" stop-color="#818181"/>
<stop offset="0.48" stop-color="#525252"/>
<stop offset="0.56" stop-color="#2E2E2E"/>
<stop offset="0.63" stop-color="#151515"/>
<stop offset="0.69" stop-color="#050505"/>
<stop offset="0.75"/>
</linearGradient>
<linearGradient id="paint1_linear_7_10696" x1="148.048" y1="129.732" x2="204.989" y2="90.4298" gradientUnits="userSpaceOnUse">
<stop stop-color="white"/>
<stop offset="0.52" stop-color="#C6C0B9"/>
</linearGradient>
</defs>
</svg>
