<svg width="480" height="442" viewBox="0 0 480 442" fill="none" xmlns="http://www.w3.org/2000/svg">
<g clip-path="url(#clip0_36_17144)">
<rect width="480" height="442" rx="24" fill="#EEF4FF"/>
<path fill-rule="evenodd" clip-rule="evenodd" d="M369.6 186.076C369.6 257.555 311.572 315.6 240 315.6C168.428 315.6 110.4 257.538 110.4 186.076C110.4 114.614 168.428 56.3999 240 56.3999C311.572 56.3999 369.6 114.462 369.6 186.076Z" fill="#2D31A6"/>
<path fill-rule="evenodd" clip-rule="evenodd" d="M299.278 232.461V121.086H292.033V131.495H188.12V121.086H180.706V232.461H172.515V251.235H307.637V232.461H299.278ZM292.016 206.134H188.103V172.524H292.016V206.134ZM292.016 135.128V168.891H188.103V135.128H292.016ZM188.12 209.919H292.033V232.478H188.12V209.919Z" fill="#E6E9EE"/>
<path fill-rule="evenodd" clip-rule="evenodd" d="M200.566 145.858C197.729 145.858 195.516 143.645 195.516 140.806V125.817C195.516 122.978 197.729 120.765 200.566 120.765C203.403 120.765 205.616 122.978 205.616 125.817V140.806C205.616 143.645 203.403 145.858 200.566 145.858Z" fill="#F1543F"/>
<path fill-rule="evenodd" clip-rule="evenodd" d="M212.557 145.858C209.719 145.858 207.507 143.645 207.507 140.806V125.817C207.507 122.978 209.719 120.765 212.557 120.765C215.394 120.765 217.606 122.978 217.606 125.817V140.806C217.606 143.645 215.394 145.858 212.557 145.858Z" fill="#F1543F"/>
<path fill-rule="evenodd" clip-rule="evenodd" d="M224.058 145.858C221.221 145.858 219.008 143.645 219.008 140.806V125.817C219.008 122.978 221.221 120.765 224.058 120.765C226.895 120.765 229.107 122.978 229.107 125.817V140.806C229.107 143.645 226.895 145.858 224.058 145.858Z" fill="#54C0EB"/>
<path fill-rule="evenodd" clip-rule="evenodd" d="M201.039 220.633C198.201 220.633 195.989 218.267 195.989 215.58V200.592C195.989 197.753 198.201 195.539 201.039 195.539C203.724 195.539 206.088 197.753 206.088 200.592V215.58C206.088 218.267 203.724 220.633 201.039 220.633Z" fill="#4CDBC4"/>
<path fill-rule="evenodd" clip-rule="evenodd" d="M227.216 220.633C224.378 220.633 222.166 218.267 222.166 215.58V200.592C222.166 197.753 224.378 195.539 227.216 195.539C230.053 195.539 232.265 197.753 232.265 200.592V215.58C232.265 218.267 230.053 220.633 227.216 220.633Z" fill="#4CDBC4"/>
<path fill-rule="evenodd" clip-rule="evenodd" d="M235.727 145.858C233.042 145.858 230.677 143.645 230.677 140.806V125.817C230.677 122.978 233.042 120.765 235.727 120.765C238.564 120.765 240.777 122.978 240.777 125.817V140.806C240.777 143.645 238.564 145.858 235.727 145.858Z" fill="#54C0EB"/>
<path fill-rule="evenodd" clip-rule="evenodd" d="M272.476 145.858C269.638 145.858 267.426 143.645 267.426 140.806V125.817C267.426 122.978 269.638 120.765 272.476 120.765C275.161 120.765 277.525 122.978 277.525 125.817V140.806C277.525 143.645 275.161 145.858 272.476 145.858Z" fill="#54C0EB"/>
<path fill-rule="evenodd" clip-rule="evenodd" d="M284.45 145.858C281.612 145.858 279.4 143.645 279.4 140.806V125.817C279.4 122.978 281.612 120.765 284.45 120.765C287.135 120.765 289.499 122.978 289.499 125.817V140.806C289.499 143.645 287.135 145.858 284.45 145.858Z" fill="#54C0EB"/>
<path fill-rule="evenodd" clip-rule="evenodd" d="M197.408 182.612C194.571 182.612 192.359 180.398 192.359 177.559V162.571C192.359 159.884 194.571 157.518 197.408 157.518C200.245 157.518 202.458 159.884 202.458 162.571V177.559C202.458 180.398 200.245 182.612 197.408 182.612Z" fill="#FFD05B"/>
<path fill-rule="evenodd" clip-rule="evenodd" d="M209.398 182.612C206.561 182.612 204.349 180.398 204.349 177.559V162.571C204.349 159.884 206.561 157.518 209.398 157.518C212.236 157.518 214.448 159.884 214.448 162.571V177.559C214.448 180.398 212.236 182.612 209.398 182.612Z" fill="#FFD05B"/>
<path fill-rule="evenodd" clip-rule="evenodd" d="M220.916 182.612C218.079 182.612 215.867 180.398 215.867 177.559V162.571C215.867 159.884 218.079 157.518 220.916 157.518C223.754 157.518 225.966 159.884 225.966 162.571V177.559C225.966 180.398 223.754 182.612 220.916 182.612Z" fill="#FFD05B"/>
<path fill-rule="evenodd" clip-rule="evenodd" d="M232.569 182.612C229.884 182.612 227.52 180.398 227.52 177.559V162.571C227.52 159.884 229.884 157.518 232.569 157.518C235.407 157.518 237.619 159.884 237.619 162.571V177.559C237.619 180.398 235.407 182.612 232.569 182.612Z" fill="#FFD05B"/>
<path fill-rule="evenodd" clip-rule="evenodd" d="M244.239 182.612C241.402 182.612 239.189 180.398 239.189 177.559V162.571C239.189 159.884 241.402 157.518 244.239 157.518C247.076 157.518 249.289 159.884 249.289 162.571V177.559C249.289 180.398 247.076 182.612 244.239 182.612Z" fill="#4CDBC4"/>
<path fill-rule="evenodd" clip-rule="evenodd" d="M255.909 182.612C253.223 182.612 250.859 180.398 250.859 177.559V162.571C250.859 159.884 253.223 157.518 255.909 157.518C258.746 157.518 260.958 159.884 260.958 162.571V177.559C260.958 180.398 258.746 182.612 255.909 182.612Z" fill="#4CDBC4"/>
<path fill-rule="evenodd" clip-rule="evenodd" d="M238.412 220.633C235.727 220.633 233.363 218.267 233.363 215.58V200.592C233.363 197.753 235.727 195.539 238.412 195.539C241.25 195.539 243.462 197.753 243.462 200.592V215.58C243.462 218.267 241.25 220.633 238.412 220.633Z" fill="#ABCB57"/>
<path fill-rule="evenodd" clip-rule="evenodd" d="M249.761 220.633C246.924 220.633 244.712 218.267 244.712 215.58V200.592C244.712 197.753 246.924 195.539 249.761 195.539C252.599 195.539 254.811 197.753 254.811 200.592V215.58C254.811 218.267 252.599 220.633 249.761 220.633Z" fill="#ABCB57"/>
<path d="M188.479 359H195.572L205.072 382.187H205.447L214.947 359H222.041V391H216.479V369.016H216.182L207.338 390.906H203.182L194.338 368.969H194.041V391H188.479V359ZM235.01 391.484C233.489 391.484 232.119 391.214 230.9 390.672C229.692 390.12 228.734 389.307 228.025 388.234C227.327 387.161 226.979 385.839 226.979 384.266C226.979 382.911 227.229 381.792 227.729 380.906C228.229 380.021 228.911 379.312 229.775 378.781C230.64 378.25 231.614 377.849 232.697 377.578C233.791 377.297 234.921 377.094 236.088 376.969C237.494 376.823 238.635 376.693 239.51 376.578C240.385 376.453 241.02 376.266 241.416 376.016C241.822 375.755 242.025 375.354 242.025 374.812V374.719C242.025 373.542 241.676 372.63 240.979 371.984C240.281 371.339 239.275 371.016 237.963 371.016C236.577 371.016 235.479 371.318 234.666 371.922C233.864 372.526 233.322 373.24 233.041 374.062L227.76 373.312C228.176 371.854 228.864 370.635 229.822 369.656C230.781 368.667 231.952 367.927 233.338 367.437C234.723 366.938 236.255 366.688 237.932 366.688C239.088 366.688 240.239 366.823 241.385 367.094C242.531 367.365 243.577 367.812 244.525 368.437C245.473 369.052 246.234 369.891 246.807 370.953C247.39 372.016 247.682 373.344 247.682 374.937V391H242.244V387.703H242.057C241.713 388.37 241.229 388.995 240.604 389.578C239.989 390.151 239.213 390.615 238.275 390.969C237.348 391.313 236.26 391.484 235.01 391.484ZM236.479 387.328C237.614 387.328 238.598 387.104 239.432 386.656C240.265 386.198 240.906 385.594 241.354 384.844C241.812 384.094 242.041 383.276 242.041 382.391V379.562C241.864 379.708 241.562 379.844 241.135 379.969C240.718 380.094 240.249 380.203 239.729 380.297C239.208 380.391 238.692 380.474 238.182 380.547C237.671 380.62 237.229 380.682 236.854 380.734C236.01 380.849 235.255 381.036 234.588 381.297C233.921 381.557 233.395 381.922 233.01 382.391C232.624 382.849 232.432 383.443 232.432 384.172C232.432 385.214 232.812 386 233.572 386.531C234.333 387.062 235.301 387.328 236.479 387.328ZM265.354 367V371.375H251.557V367H265.354ZM254.963 361.25H260.619V383.781C260.619 384.542 260.734 385.125 260.963 385.531C261.202 385.927 261.515 386.198 261.9 386.344C262.286 386.49 262.713 386.562 263.182 386.562C263.536 386.562 263.859 386.536 264.15 386.484C264.452 386.432 264.682 386.385 264.838 386.344L265.791 390.766C265.489 390.87 265.057 390.984 264.494 391.109C263.942 391.234 263.265 391.307 262.463 391.328C261.046 391.37 259.77 391.156 258.635 390.687C257.499 390.208 256.598 389.469 255.932 388.469C255.275 387.469 254.952 386.219 254.963 384.719V361.25ZM276.256 376.937V391H270.6V359H276.131V371.078H276.412C276.975 369.724 277.844 368.656 279.021 367.875C280.209 367.083 281.719 366.688 283.553 366.688C285.219 366.688 286.673 367.036 287.912 367.734C289.152 368.432 290.11 369.453 290.787 370.797C291.475 372.141 291.818 373.781 291.818 375.719V391H286.162V376.594C286.162 374.979 285.745 373.724 284.912 372.828C284.089 371.922 282.933 371.469 281.443 371.469C280.443 371.469 279.548 371.687 278.756 372.125C277.975 372.552 277.36 373.172 276.912 373.984C276.475 374.797 276.256 375.781 276.256 376.937Z" fill="#3538CD"/>
</g>
<defs>
<clipPath id="clip0_36_17144">
<rect width="480" height="442" rx="24" fill="white"/>
</clipPath>
</defs>
</svg>
