<svg width="230" height="230" viewBox="0 0 230 230" fill="none" xmlns="http://www.w3.org/2000/svg">
<path fill-rule="evenodd" clip-rule="evenodd" d="M207 115.054C207 165.795 165.807 207 115 207C64.1926 207 23 165.783 23 115.054C23 64.3247 64.1926 23 115 23C165.807 23 207 64.2168 207 115.054Z" fill="#2D31A6"/>
<path fill-rule="evenodd" clip-rule="evenodd" d="M157.08 147.982V68.919H151.937V76.3083H78.1713V68.919H72.9083V147.982H67.0939V161.309H163.014V147.982H157.08ZM151.925 129.293H78.1593V105.434H151.925V129.293ZM151.925 78.8873V102.854H78.1593V78.8873H151.925ZM78.1713 131.98H151.937V147.994H78.1713V131.98Z" fill="#E6E9EE"/>
<path fill-rule="evenodd" clip-rule="evenodd" d="M87.0067 86.5045C84.9926 86.5045 83.4221 84.9331 83.4221 82.9178V72.2778C83.4221 70.2625 84.9926 68.6911 87.0067 68.6911C89.0208 68.6911 90.5913 70.2625 90.5913 72.2778V82.9178C90.5913 84.9331 89.0208 86.5045 87.0067 86.5045Z" fill="#F1543F"/>
<path fill-rule="evenodd" clip-rule="evenodd" d="M95.5186 86.5045C93.5045 86.5045 91.934 84.9331 91.934 82.9178V72.2778C91.934 70.2625 93.5045 68.6911 95.5186 68.6911C97.5326 68.6911 99.1031 70.2625 99.1031 72.2778V82.9178C99.1031 84.9331 97.5326 86.5045 95.5186 86.5045Z" fill="#F1543F"/>
<path fill-rule="evenodd" clip-rule="evenodd" d="M103.683 86.5045C101.669 86.5045 100.098 84.9331 100.098 82.9178V72.2778C100.098 70.2625 101.669 68.6911 103.683 68.6911C105.697 68.6911 107.268 70.2625 107.268 72.2778V82.9178C107.268 84.9331 105.697 86.5045 103.683 86.5045Z" fill="#54C0EB"/>
<path fill-rule="evenodd" clip-rule="evenodd" d="M87.3423 139.585C85.3282 139.585 83.7577 137.906 83.7577 135.998V125.358C83.7577 123.343 85.3282 121.772 87.3423 121.772C89.2484 121.772 90.9268 123.343 90.9268 125.358V135.998C90.9268 137.906 89.2484 139.585 87.3423 139.585Z" fill="#4CDBC4"/>
<path fill-rule="evenodd" clip-rule="evenodd" d="M105.925 139.585C103.911 139.585 102.34 137.906 102.34 135.998V125.358C102.34 123.343 103.911 121.772 105.925 121.772C107.939 121.772 109.509 123.343 109.509 125.358V135.998C109.509 137.906 107.939 139.585 105.925 139.585Z" fill="#4CDBC4"/>
<path fill-rule="evenodd" clip-rule="evenodd" d="M111.967 86.5045C110.06 86.5045 108.382 84.9331 108.382 82.9178V72.2778C108.382 70.2625 110.06 68.6911 111.967 68.6911C113.981 68.6911 115.551 70.2625 115.551 72.2778V82.9178C115.551 84.9331 113.981 86.5045 111.967 86.5045Z" fill="#54C0EB"/>
<path fill-rule="evenodd" clip-rule="evenodd" d="M138.054 86.5045C136.04 86.5045 134.469 84.9331 134.469 82.9178V72.2778C134.469 70.2625 136.04 68.6911 138.054 68.6911C139.96 68.6911 141.638 70.2625 141.638 72.2778V82.9178C141.638 84.9331 139.96 86.5045 138.054 86.5045Z" fill="#54C0EB"/>
<path fill-rule="evenodd" clip-rule="evenodd" d="M146.554 86.5045C144.54 86.5045 142.969 84.9331 142.969 82.9178V72.2778C142.969 70.2625 144.54 68.6911 146.554 68.6911C148.46 68.6911 150.138 70.2625 150.138 72.2778V82.9178C150.138 84.9331 148.46 86.5045 146.554 86.5045Z" fill="#54C0EB"/>
<path fill-rule="evenodd" clip-rule="evenodd" d="M84.7651 112.595C82.751 112.595 81.1805 111.024 81.1805 109.008V98.3682C81.1805 96.4609 82.751 94.7816 84.7651 94.7816C86.7792 94.7816 88.3497 96.4609 88.3497 98.3682V109.008C88.3497 111.024 86.7792 112.595 84.7651 112.595Z" fill="#FFD05B"/>
<path fill-rule="evenodd" clip-rule="evenodd" d="M93.2766 112.595C91.2625 112.595 89.692 111.024 89.692 109.008V98.3682C89.692 96.4609 91.2625 94.7816 93.2766 94.7816C95.2906 94.7816 96.8612 96.4609 96.8612 98.3682V109.008C96.8612 111.024 95.2906 112.595 93.2766 112.595Z" fill="#FFD05B"/>
<path fill-rule="evenodd" clip-rule="evenodd" d="M101.453 112.595C99.4389 112.595 97.8684 111.024 97.8684 109.008V98.3682C97.8684 96.4609 99.4389 94.7816 101.453 94.7816C103.467 94.7816 105.038 96.4609 105.038 98.3682V109.008C105.038 111.024 103.467 112.595 101.453 112.595Z" fill="#FFD05B"/>
<path fill-rule="evenodd" clip-rule="evenodd" d="M109.725 112.595C107.819 112.595 106.141 111.024 106.141 109.008V98.3682C106.141 96.4609 107.819 94.7816 109.725 94.7816C111.739 94.7816 113.31 96.4609 113.31 98.3682V109.008C113.31 111.024 111.739 112.595 109.725 112.595Z" fill="#FFD05B"/>
<path fill-rule="evenodd" clip-rule="evenodd" d="M118.009 112.595C115.995 112.595 114.425 111.024 114.425 109.008V98.3682C114.425 96.4609 115.995 94.7816 118.009 94.7816C120.023 94.7816 121.594 96.4609 121.594 98.3682V109.008C121.594 111.024 120.023 112.595 118.009 112.595Z" fill="#4CDBC4"/>
<path fill-rule="evenodd" clip-rule="evenodd" d="M126.293 112.595C124.387 112.595 122.708 111.024 122.708 109.008V98.3682C122.708 96.4609 124.387 94.7816 126.293 94.7816C128.307 94.7816 129.878 96.4609 129.878 98.3682V109.008C129.878 111.024 128.307 112.595 126.293 112.595Z" fill="#4CDBC4"/>
<path fill-rule="evenodd" clip-rule="evenodd" d="M113.873 139.585C111.967 139.585 110.288 137.906 110.288 135.998V125.358C110.288 123.343 111.967 121.772 113.873 121.772C115.887 121.772 117.458 123.343 117.458 125.358V135.998C117.458 137.906 115.887 139.585 113.873 139.585Z" fill="#ABCB57"/>
<path fill-rule="evenodd" clip-rule="evenodd" d="M121.929 139.585C119.915 139.585 118.345 137.906 118.345 135.998V125.358C118.345 123.343 119.915 121.772 121.929 121.772C123.943 121.772 125.514 123.343 125.514 125.358V135.998C125.514 137.906 123.943 139.585 121.929 139.585Z" fill="#ABCB57"/>
</svg>
