<svg width="32" height="32" viewBox="0 0 32 32" fill="none" xmlns="http://www.w3.org/2000/svg">
<path d="M25.3585 19.578L25.3598 19.5801C25.8001 20.3027 25.8777 21.155 25.5855 21.9303C25.2905 22.7132 24.6823 23.307 23.8973 23.5649L23.8946 23.5659C21.361 24.4147 18.6948 24.8333 16.0268 24.8333C13.3588 24.8333 10.6934 24.4148 8.16113 23.5533L8.16012 23.5529C7.2964 23.2611 6.66533 22.6672 6.40413 21.938L6.40415 21.938L6.40271 21.9341C6.12734 21.1851 6.21771 20.3558 6.68207 19.5774C6.68229 19.577 6.68251 19.5766 6.68273 19.5763L8.02793 17.352L8.02798 17.3521L8.03198 17.3452C8.20265 17.0526 8.34995 16.653 8.45424 16.2695C8.55842 15.8863 8.63342 15.4686 8.63342 15.1333V11.76C8.63342 8.86566 10.3175 6.354 12.7561 5.14096L12.8944 5.07216L12.9698 4.93731C13.576 3.85313 14.7171 3.16663 15.9868 3.16663C17.274 3.16663 18.3873 3.83036 18.9915 4.89932L19.0691 5.03659L19.2113 5.10451C21.6983 6.29174 23.4201 8.82745 23.4201 11.76V15.1333C23.4201 15.4686 23.4951 15.8862 23.5991 16.2706C23.7035 16.6561 23.8502 17.0567 24.0186 17.3534L24.0184 17.3535L24.0251 17.3646L25.3585 19.578Z" fill="#3538CD" stroke="#3538CD"/>
<path d="M13.0927 27.2775C13.2839 27.3004 13.4802 27.3217 13.6774 27.3381C14.4489 27.4058 15.2367 27.4466 16.0267 27.4466C16.804 27.4466 17.579 27.4057 18.3378 27.338L18.3378 27.338L18.3407 27.3377C18.4153 27.3306 18.497 27.3241 18.5825 27.3172C18.6863 27.3089 18.7957 27.3001 18.9049 27.2894C18.2715 28.2217 17.2047 28.8333 16 28.8333C15.0777 28.8333 14.1691 28.4585 13.5331 27.7994L13.5244 27.7904L13.5153 27.7819C13.3581 27.6345 13.2163 27.4635 13.0927 27.2775Z" fill="#3538CD" stroke="#3538CD"/>
</svg>
