<svg width="68" height="68" viewBox="0 0 68 68" fill="none" xmlns="http://www.w3.org/2000/svg">
<rect x="4" y="4" width="60" height="60" rx="30" fill="#E0EAFF"/>
<rect x="4" y="4" width="60" height="60" rx="30" stroke="#EEF4FF" stroke-width="8"/>
<path d="M34 38.5C36.4853 38.5 38.5 36.4853 38.5 34C38.5 31.5147 36.4853 29.5 34 29.5C31.5147 29.5 29.5 31.5147 29.5 34C29.5 36.4853 31.5147 38.5 34 38.5Z" stroke="#3538CD" stroke-width="1.5" stroke-miterlimit="10" stroke-linecap="round" stroke-linejoin="round"/>
<path d="M19 35.32V32.68C19 31.12 20.275 29.83 21.85 29.83C24.565 29.83 25.675 27.91 24.31 25.555C23.53 24.205 23.995 22.45 25.36 21.67L27.955 20.185C29.14 19.48 30.67 19.9 31.375 21.085L31.54 21.37C32.89 23.725 35.11 23.725 36.475 21.37L36.64 21.085C37.345 19.9 38.875 19.48 40.06 20.185L42.655 21.67C44.02 22.45 44.485 24.205 43.705 25.555C42.34 27.91 43.45 29.83 46.165 29.83C47.725 29.83 49.015 31.105 49.015 32.68V35.32C49.015 36.88 47.74 38.17 46.165 38.17C43.45 38.17 42.34 40.09 43.705 42.445C44.485 43.81 44.02 45.55 42.655 46.33L40.06 47.815C38.875 48.52 37.345 48.1 36.64 46.915L36.475 46.63C35.125 44.275 32.905 44.275 31.54 46.63L31.375 46.915C30.67 48.1 29.14 48.52 27.955 47.815L25.36 46.33C23.995 45.55 23.53 43.795 24.31 42.445C25.675 40.09 24.565 38.17 21.85 38.17C20.275 38.17 19 36.88 19 35.32Z" stroke="#3538CD" stroke-width="1.5" stroke-miterlimit="10" stroke-linecap="round" stroke-linejoin="round"/>
</svg>
